<svg version="1.1" xmlns="http://www.w3.org/2000/svg"  viewBox="0 0 1200 893" width="1200" height="893"><path d="M0 0 C16.31464711 11.67838026 22.12208122 32.96127527 27.72827148 51.2052002 C28.42452975 53.4666224 29.12640256 55.72622711 29.83007812 57.98535156 C35.97875076 77.72958983 42.0143376 97.48189743 47.41796875 117.4453125 C48.20370862 120.33821952 48.98987096 123.23101145 49.77612305 126.1237793 C50.2807644 127.98055743 50.7848486 129.8374871 51.28833008 131.69458008 C52.79035842 137.21411826 54.35179255 142.71186835 55.98046875 148.1953125 C60.48559455 163.38260394 64.54668492 178.6728164 68.47583008 194.01806641 C70.44982697 201.72173351 72.46571731 209.4122036 74.52270508 217.09399414 C75.42604708 220.4755528 76.31195268 223.86120138 77.19140625 227.24902344 C80.43042202 239.69458947 83.84065976 252.09274971 87.41796875 264.4453125 C87.65547852 265.26773437 87.89298828 266.09015625 88.13769531 266.9375 C88.75235929 269.03043536 89.39059271 271.11387168 90.04296875 273.1953125 C90.55730469 274.85820313 90.55730469 274.85820313 91.08203125 276.5546875 C92.67589491 280.00339834 94.52584032 282.00150793 97.41796875 284.4453125 C101.27201164 285.54646761 103.4154992 285.83263028 107.16796875 284.3828125 C110.87142312 281.19372679 112.50024599 277.16621068 113.41796875 272.4453125 C113.53938383 270.19772165 113.59339345 267.946148 113.60546875 265.6953125 C113.61964844 264.52484375 113.63382812 263.354375 113.6484375 262.1484375 C113.52585853 257.42124781 112.84146684 252.77883627 112.22195435 248.09559631 C111.20615102 240.18438609 110.68272552 232.24891611 110.15701294 224.29263306 C109.849724 219.6630078 109.52422044 215.03466038 109.19921875 210.40625 C109.13392471 209.47426285 109.06863068 208.5422757 109.00135803 207.58204651 C108.39332543 198.9683063 107.71776839 190.3614223 106.98046875 181.7578125 C106.92029572 181.05551514 106.86012268 180.35321777 106.79812622 179.62963867 C105.87401255 168.93931331 104.79650802 158.2676379 103.67611694 147.59631348 C98.19232395 95.2646306 98.19232395 95.2646306 98.04296875 69.8203125 C98.02911133 68.54099854 98.01525391 67.26168457 98.00097656 65.94360352 C98.06573385 53.16170692 100.50573938 39.52580599 109.08203125 29.5 C115.59111679 23.5853515 122.53535912 20.71203301 131.29296875 20.8828125 C132.0816333 20.89231934 132.87029785 20.90182617 133.68286133 20.91162109 C140.20626251 21.14395221 145.07573512 22.58246664 150.41796875 26.4453125 C151.04703125 26.868125 151.67609375 27.2909375 152.32421875 27.7265625 C175.06189293 44.87954478 176.75121921 85.49002798 181.04876709 111.23590088 C181.39957243 113.33522347 181.75345229 115.43400639 182.10791016 117.53271484 C188.98953336 158.45944338 194.2550962 199.68084595 199.74370575 240.81331635 C200.07392309 243.28684785 200.40480635 245.76028939 200.73590088 248.23370361 C200.9544808 249.86706369 201.17304776 251.50042549 201.39160156 253.13378906 C201.55257513 254.33665998 201.55257513 254.33665998 201.71680069 255.56383133 C202.23598314 259.44762471 202.75259339 263.33172581 203.26306152 267.2166748 C205.32873277 282.93509496 207.50233897 298.63348 210.02761078 314.28554535 C210.27169491 315.80427176 210.51215981 317.32358567 210.74845123 318.84354401 C213.45078547 336.13125482 217.63922772 353.90439762 229.41796875 367.4453125 C234.79633775 371.34726648 238.83389164 372.23540175 245.41796875 371.4453125 C248.79270134 370.85110742 248.79270134 370.85110742 251.41796875 369.4453125 C252.44809963 367.69003236 252.44809963 367.69003236 253.41796875 365.4453125 C253.92972656 364.46820313 254.44148438 363.49109375 254.96875 362.484375 C260.98728814 350.82095518 265.16043786 338.86218774 268.62109375 326.2109375 C269.41796875 323.4453125 269.41796875 323.4453125 270.41796875 321.4453125 C270.51312165 319.45484667 270.54985758 317.46146974 270.55859375 315.46875 C270.82706373 294.49764617 272.27204915 277.13642531 287.29296875 261.0703125 C296.0556117 252.83005788 307.18795544 248.67915231 319.19921875 249.03515625 C328.88618282 250.26953881 338.08174196 253.83293699 344.41796875 261.4453125 C346.71137304 264.64732088 348.61250906 267.94755583 350.41796875 271.4453125 C350.86011719 272.30125 351.30226563 273.1571875 351.7578125 274.0390625 C357.94475661 286.82666735 360.44097207 300.80247941 363.22299194 314.62527466 C367.75456324 346.88102604 367.75456324 346.88102604 383.23046875 374.0703125 C388.17357169 376.20263142 392.33715844 376.25545151 397.52734375 374.890625 C405.8234692 371.51429488 409.75278369 363.23869319 413.48046875 355.5703125 C423.45522176 330.76537114 425.41997638 301.71407057 429.41796875 275.4453125 C429.711085 273.52310965 430.00421643 271.60090912 430.29736328 269.67871094 C431.46635462 262.00723077 432.63138873 254.3351515 433.79492188 246.6628418 C439.03960073 212.10091541 444.60629378 177.61732061 450.90759277 143.23083496 C451.24853592 141.37004049 451.58878381 139.50911849 451.92834473 137.64807129 C468.617366 46.19191525 468.617366 46.19191525 490.65234375 29.78125 C498.05358231 25.33553959 506.09779234 25.51702835 514.41796875 26.4453125 C517.78658503 27.3347786 520.47822582 28.59729983 523.41796875 30.4453125 C524.03929687 30.78433594 524.660625 31.12335938 525.30078125 31.47265625 C533.30057046 36.33832891 536.68910493 44.97669881 538.875 53.70703125 C541.63437421 67.62301197 540.66529412 81.52599034 539.15234375 95.53515625 C539.01997314 96.78563248 538.88760254 98.0361087 538.7512207 99.32447815 C537.19659136 113.81550093 535.44793829 128.28325419 533.67834473 142.74932861 C533.32940905 145.60845811 532.98362332 148.46796509 532.63780212 151.32747269 C531.10707916 163.97623609 529.5617046 176.62009417 527.79296875 189.23828125 C526.39489508 199.24261023 525.3668231 209.26479773 524.41796875 219.3203125 C523.34244996 230.53634311 522.1851386 241.71622049 520.66796875 252.8828125 C517.64603105 271.43383823 517.64603105 271.43383823 523.41796875 288.4453125 C527.1533235 290.71077106 530.06019862 290.90402515 534.41796875 290.4453125 C547.08622192 282.03189816 550.28057543 256.17074665 554.02490234 242.14013672 C556.31526772 233.63665623 558.90882629 225.23774164 561.52905273 216.83105469 C563.40654755 210.78897579 565.20912577 204.74172526 566.85546875 198.6328125 C572.30927652 178.50600119 578.93240763 158.67797053 585.32617188 138.83398438 C586.32069289 135.7472331 587.31359593 132.65996763 588.30601501 129.57254028 C589.18860304 126.82749671 590.07208817 124.08274248 590.95584106 121.33807373 C591.5808205 119.39687063 592.20533676 117.45551844 592.82983398 115.51416016 C623.72881041 19.68878061 623.72881041 19.68878061 645.828125 8.19140625 C653.75633394 4.58539046 662.09546479 4.21171948 670.45703125 6.703125 C679.49657415 10.12446594 686.53521748 15.46867888 690.8046875 24.3203125 C697.17167084 42.19254643 692.36864657 62.05596757 688.41796875 79.9453125 C688.26935394 80.62005615 688.12073914 81.2947998 687.96762085 81.98999023 C681.49699481 111.22728919 673.24427674 139.95348227 664.50801086 168.58280945 C662.31909968 175.75620197 660.17088498 182.94106034 658.04296875 190.1328125 C657.72312012 191.21336914 657.40327148 192.29392578 657.07373047 193.40722656 C653.46863534 205.61870487 649.97737653 217.86231131 646.55078125 230.125 C643.37143273 241.44663975 640.0883556 252.68833173 636.29296875 263.8203125 C627.26845492 287.08695368 627.26845492 287.08695368 626.41796875 311.4453125 C628.72885419 314.99064528 629.70752744 316.22165505 633.79296875 317.5078125 C638.32513576 317.42967169 639.87838775 316.21061015 643.41796875 313.4453125 C657.65533007 294.82051942 665.04305884 268.75284036 674.03782654 247.14831543 C677.23502565 239.47410902 680.48222664 231.821174 683.72875977 224.16772461 C684.14182373 223.19327393 684.5548877 222.21882324 684.98046875 221.21484375 C685.38394531 220.26303223 685.78742187 219.3112207 686.203125 218.33056641 C687.45499253 215.35738101 688.68671128 212.37630315 689.91796875 209.39453125 C691.47807444 205.64095269 693.09164439 201.92388945 694.7890625 198.23046875 C696.85676581 193.72695134 698.82849335 189.18957347 700.765625 184.62890625 C701.06205399 183.93107025 701.35848297 183.23323425 701.66389465 182.51425171 C702.28275778 181.05677786 702.90153543 179.59926771 703.52023315 178.14172363 C727.69373512 121.27464544 727.69373512 121.27464544 739.41796875 107.4453125 C740.16046875 106.4140625 740.90296875 105.3828125 741.66796875 104.3203125 C748.29489593 97.39216135 755.79610058 93.32680741 765.35546875 93.0703125 C774.84005528 93.01287193 783.85406971 95.8888487 790.88671875 102.5078125 C799.88490605 113.89327398 800.40819432 126.59834351 799.41796875 140.4453125 C798.64026638 146.24709862 797.08750664 151.84532636 795.41796875 157.4453125 C795.18770996 158.21907227 794.95745117 158.99283203 794.72021484 159.79003906 C793.26475125 164.61425172 791.73352489 169.41079914 790.15722656 174.19677734 C789.46100986 176.31439815 788.77760048 178.43570262 788.09765625 180.55859375 C787.68424049 181.83354323 787.27021398 183.10829488 786.85546875 184.3828125 C786.50355469 185.46433594 786.15164063 186.54585937 785.7890625 187.66015625 C784.70613953 190.77994394 783.44207203 193.80628194 782.15625 196.84765625 C780.15244081 201.60757936 778.27098769 206.39723254 776.46484375 211.234375 C776.20478546 211.93082123 775.94472717 212.62726746 775.67678833 213.34481812 C775.12788809 214.81630848 774.57922948 216.28788901 774.03079224 217.759552 C762.68396651 248.14791888 750.27196706 278.1077624 737.76387024 308.03265381 C720.74923123 341.25849411 720.74923123 341.25849411 714.41796875 376.4453125 C715.80682123 379.26311784 715.80682123 379.26311784 717.41796875 381.4453125 C717.41796875 382.1053125 717.41796875 382.7653125 717.41796875 383.4453125 C723.72300407 383.88014252 726.20674524 383.36859104 731.41796875 379.4453125 C733.38471711 377.6880242 735.25574899 375.94054671 737.10546875 374.0703125 C737.8797522 373.29192017 737.8797522 373.29192017 738.66967773 372.49780273 C743.42244821 367.61883325 747.57142734 362.35386184 751.703125 356.94921875 C754.33310131 353.51803251 757.10176274 350.22423084 759.91796875 346.9453125 C764.6336384 341.43478255 769.13458764 335.78067228 773.58984375 330.05859375 C776.04616318 326.90723582 778.54510354 323.79218119 781.05371094 320.68237305 C785.68800558 314.93471026 790.18782014 309.13349198 794.48828125 303.12890625 C798.05100096 298.17427378 801.73639784 293.31190985 805.41796875 288.4453125 C806.03800781 287.61644531 806.65804688 286.78757812 807.296875 285.93359375 C810.55072971 281.64607602 813.9371938 277.72223685 817.81640625 273.98828125 C819.14601715 272.70731465 820.41567546 271.36446356 821.66796875 270.0078125 C829.83749362 262.39530069 837.97893178 256.72022941 849.29296875 255.8828125 C857.30452108 256.16938436 864.04642623 260.59820615 869.41796875 266.3203125 C876.44850674 274.44058388 876.40475097 284.77869887 875.70654297 294.94042969 C872.53638364 322.45805631 850.95531539 348.72799665 836.04431152 371.01223755 C833.36146225 375.02588921 830.68913621 379.04653143 828.015625 383.06640625 C826.38341636 385.51844173 824.7509308 387.97029268 823.1184082 390.42211914 C822.02782407 392.06051494 820.93765368 393.69918623 819.84790039 395.33813477 C813.25119292 405.25837424 806.61144815 415.14490355 799.84266663 424.94883728 C795.18213021 431.71917733 790.80649884 438.64845377 786.51611328 445.65771484 C785.50239997 447.30787244 784.47448428 448.9492828 783.4453125 450.58984375 C779.3286345 457.17483792 775.37654025 463.85288413 771.48046875 470.5703125 C771.01463379 471.36203857 770.54879883 472.15376465 770.06884766 472.96948242 C760.56306493 489.49979485 753.62077186 507.10282306 746.85546875 524.8828125 C745.25244201 529.06994807 743.64562181 533.25562507 742.0390625 537.44140625 C741.45625015 538.963069 741.45625015 538.963069 740.86166382 540.51547241 C737.44071492 549.43137715 733.91270254 558.30225094 730.3387146 567.15776062 C728.99874348 570.48685893 727.67230582 573.82134139 726.34587097 577.15585327 C723.8912125 583.212354 721.16511563 589.15541482 718.47363281 595.109375 C717.79044437 596.62111113 717.1099261 598.13405802 716.43261719 599.6484375 C706.24041714 622.37611044 693.03304989 642.89640956 676.41796875 661.4453125 C675.51767953 662.46826653 674.61792136 663.49168824 673.71875 664.515625 C668.9105761 669.92021864 663.97894799 674.82959917 658.41796875 679.4453125 C657.57105469 680.19167969 656.72414063 680.93804688 655.8515625 681.70703125 C625.96401648 707.60957113 585.2198752 724.30698439 545.4609375 724.68359375 C544.60892761 724.6933876 543.75691772 724.70318146 542.87908936 724.71327209 C523.671191 724.88837076 505.2650967 724.54912262 486.41796875 720.4453125 C484.85272461 720.11587646 484.85272461 720.11587646 483.25585938 719.77978516 C445.74315267 711.76323123 410.14439388 697.11596456 380.41796875 672.4453125 C379.8343457 671.96175293 379.25072266 671.47819336 378.64941406 670.97998047 C367.77412287 661.92872781 358.24638345 652.54720994 349.41796875 641.4453125 C348.29648438 640.04345703 348.29648438 640.04345703 347.15234375 638.61328125 C346.58 637.89785156 346.00765625 637.18242188 345.41796875 636.4453125 C346.77318298 633.38388731 348.2624683 631.39630563 350.71875 629.1328125 C351.36650391 628.53210938 352.01425781 627.93140625 352.68164062 627.3125 C353.35775391 626.69632813 354.03386719 626.08015625 354.73046875 625.4453125 C355.39498047 624.82914063 356.05949219 624.21296875 356.74414062 623.578125 C360.2023735 620.39012002 363.71816802 617.35324941 367.41796875 614.4453125 C370.27962957 611.73040352 372.89243087 608.90570695 375.41796875 605.8828125 C377.17154622 603.79904487 378.67915641 602.24439891 380.85546875 600.5703125 C383.3127572 598.53256111 384.89078241 596.61220962 386.79296875 594.0703125 C389.47710042 590.50889969 392.22655139 587.75779544 395.671875 584.95703125 C401.28249727 580.09951264 405.7415396 573.8613517 410.32421875 568.0625 C411.7181396 566.32009894 413.13499264 564.59579507 414.57421875 562.890625 C438.14339343 534.92297758 454.90469451 500.73822868 452.41796875 463.4453125 C450.37746469 442.97315004 442.75112894 423.64268305 427.41796875 409.4453125 C408.87916262 394.41912226 389.77379351 390.99369472 366.41796875 392.4453125 C345.87285963 394.87228821 329.18645916 407.95777133 315.41796875 422.4453125 C310.76713076 417.82589909 310.76713076 417.82589909 308.85546875 415.7421875 C298.98698932 405.1228455 285.95689959 398.07306146 272.29296875 393.6953125 C271.63578857 393.48422852 270.9786084 393.27314453 270.30151367 393.05566406 C251.62708847 387.37143317 232.35121112 390.4872206 215.27734375 399.265625 C210.13349052 402.07295678 205.70864427 405.46402156 201.41796875 409.4453125 C200.81082031 409.96222656 200.20367187 410.47914063 199.578125 411.01171875 C190.22710899 419.47216181 184.07804308 431.56352707 180.41796875 443.4453125 C180.12599609 444.37802979 180.12599609 444.37802979 179.828125 445.32958984 C173.07456563 467.60419702 175.0969134 492.55615526 185.41796875 513.4453125 C186.01225787 514.69635863 186.60597054 515.94767869 187.19921875 517.19921875 C197.10239412 537.80033066 209.91077574 556.27250296 224.89453125 573.51953125 C227.36478574 576.38364984 229.73994647 579.30696474 232.10546875 582.2578125 C235.2996517 586.18648672 238.62851143 589.81620522 242.30078125 593.30078125 C244.06896657 595.09180291 245.67939941 596.91023211 247.30859375 598.82421875 C252.32940586 604.60610419 257.78571167 609.96233133 263.20703125 615.36474609 C265.0493464 617.20167149 266.88621753 619.04392049 268.72265625 620.88671875 C269.90462718 622.06802933 271.08690804 623.24902992 272.26953125 624.4296875 C272.81235748 624.97453796 273.35518372 625.51938843 273.91445923 626.08074951 C276.93804474 629.08592112 280.02928991 631.84417107 283.41796875 634.4453125 C281.90196941 639.25500088 279.18869687 642.41952912 275.91796875 646.1328125 C275.1127478 647.05646606 275.1127478 647.05646606 274.29125977 647.9987793 C266.35155453 657.02357367 257.89809307 665.04873199 248.41796875 672.4453125 C247.45890625 673.198125 246.49984375 673.9509375 245.51171875 674.7265625 C225.63241535 690.00223775 203.0599088 701.28985521 179.41796875 709.4453125 C178.73782715 709.68830078 178.05768555 709.93128906 177.35693359 710.18164062 C130.90931149 726.70367291 73.84678618 728.75029113 27.41796875 711.4453125 C26.46059814 711.1037915 26.46059814 711.1037915 25.48388672 710.75537109 C-7.23102581 699.05268254 -37.93679379 676.49087947 -58.58203125 648.4453125 C-59.36964844 647.38957031 -60.15726563 646.33382812 -60.96875 645.24609375 C-70.65398442 632.09196796 -78.57346413 618.18127414 -85.58203125 603.4453125 C-86.08355713 602.41035645 -86.08355713 602.41035645 -86.59521484 601.35449219 C-97.18412725 579.39341923 -105.03401708 556.11926029 -112.8453064 533.05728149 C-127.2061666 490.6707038 -145.28392814 453.08607235 -169.8671875 415.60546875 C-173.03417125 410.7736233 -176.11622184 405.88858416 -179.20703125 401.0078125 C-184.42924168 392.77409604 -189.73461376 384.59819892 -195.08203125 376.4453125 C-247.8065511 295.92220331 -247.8065511 295.92220331 -244.58203125 269.4453125 C-242.34452588 260.26672866 -238.62047457 254.17657163 -230.51953125 249.1328125 C-224.6320836 245.67654508 -219.36898764 244.57544924 -212.58203125 245.4453125 C-203.88122765 247.9513313 -197.2174824 252.4021165 -190.58203125 258.4453125 C-189.45861328 259.46431641 -189.45861328 259.46431641 -188.3125 260.50390625 C-175.36209353 272.86462696 -165.32601793 288.74290026 -155.140625 303.38671875 C-151.63798658 308.39993941 -148.00989963 313.30967057 -144.33203125 318.1953125 C-143.68016846 319.06293213 -143.02830566 319.93055176 -142.35668945 320.82446289 C-137.68864216 327.01969316 -132.94114695 333.14531492 -128.12109375 339.22265625 C-126.00276746 341.89762892 -123.93309754 344.60626336 -121.87329102 347.32641602 C-117.83113971 352.65196843 -113.65680519 357.84612261 -109.33203125 362.9453125 C-108.84871338 363.52087891 -108.36539551 364.09644531 -107.86743164 364.68945312 C-103.87129372 369.34716704 -100.00440339 373.68035288 -94.01953125 375.5703125 C-90.42544433 375.77652788 -90.42544433 375.77652788 -87.70703125 373.1953125 C-84.06137335 368.47740228 -84.14631088 364.17457186 -84.58203125 358.4453125 C-85.16069028 355.512691 -86.08417394 352.76013731 -87.08203125 349.9453125 C-87.37972412 349.07914307 -87.67741699 348.21297363 -87.98413086 347.32055664 C-93.70543928 331.04766591 -100.2443625 315.05123118 -106.57177734 299.00750732 C-120.24867098 264.3203204 -133.26422218 229.44882888 -145.33096313 194.16491699 C-146.1487639 191.77433344 -146.96895602 189.38456626 -147.7918396 186.99572754 C-170.92029326 119.73402419 -170.92029326 119.73402419 -160.95703125 97.3828125 C-155.53223429 87.53042391 -148.13234964 81.9620853 -137.58203125 78.4453125 C-128.12216838 77.55480072 -119.92365344 78.73471999 -112.0234375 84.22265625 C-84.56616926 107.2250791 -75.0906107 151.0307978 -62.69898987 183.18528748 C-57.8642167 195.72983842 -52.97520071 208.25175776 -48.03662109 220.75585938 C-46.68444444 224.18554947 -45.33716724 227.61711186 -43.99147034 231.04934692 C-37.71290605 247.06062708 -31.40310486 263.06064066 -24.91641235 278.98895264 C-24.32814855 280.4361028 -23.74258344 281.88435354 -23.16000366 283.33380127 C-17.90087893 297.7249975 -17.90087893 297.7249975 -8.58203125 309.4453125 C-4.4881818 310.06524921 -4.4881818 310.06524921 -0.58203125 309.4453125 C2.62182052 306.84184437 4.24161507 305.355478 5.03808594 301.24487305 C4.84019766 291.51734518 3.19657477 282.63123303 0.66796875 273.2578125 C0.26284262 271.70232823 -0.14092576 270.14648982 -0.54345703 268.59033203 C-1.85996147 263.53390133 -3.21718369 258.48887839 -4.58203125 253.4453125 C-4.81635864 252.57771301 -5.05068604 251.71011353 -5.29211426 250.81622314 C-7.50355937 242.63395157 -9.73051097 234.45597176 -11.97949219 226.28393555 C-16.0884815 211.34567867 -20.04315676 196.37025929 -23.92919922 181.37255859 C-25.78326648 174.22920244 -27.65653246 167.10041153 -29.7109375 160.01171875 C-31.50848592 153.8010221 -33.05339363 147.55390727 -34.51953125 141.2578125 C-36.04949126 134.76292579 -37.59226595 128.28403264 -39.37744141 121.85424805 C-62.94237806 36.61747002 -62.94237806 36.61747002 -49.26171875 9.86328125 C-45.0441425 2.91465152 -38.83587648 -2.51762125 -31.03515625 -5.08203125 C-19.8978738 -7.22790892 -9.66837474 -5.82150249 0 0 Z " transform="translate(287.58203125,96.5546875)" style="fill: #FA9702;"></path><path d="M0 0 C16.31464711 11.67838026 22.12208122 32.96127527 27.72827148 51.2052002 C28.42452975 53.4666224 29.12640256 55.72622711 29.83007812 57.98535156 C35.97875076 77.72958983 42.0143376 97.48189743 47.41796875 117.4453125 C48.20370862 120.33821952 48.98987096 123.23101145 49.77612305 126.1237793 C50.2807644 127.98055743 50.7848486 129.8374871 51.28833008 131.69458008 C52.79035842 137.21411826 54.35179255 142.71186835 55.98046875 148.1953125 C60.48559455 163.38260394 64.54668492 178.6728164 68.47583008 194.01806641 C70.44982697 201.72173351 72.46571731 209.4122036 74.52270508 217.09399414 C75.42604708 220.4755528 76.31195268 223.86120138 77.19140625 227.24902344 C80.43042202 239.69458947 83.84065976 252.09274971 87.41796875 264.4453125 C87.65547852 265.26773437 87.89298828 266.09015625 88.13769531 266.9375 C88.75235929 269.03043536 89.39059271 271.11387168 90.04296875 273.1953125 C90.55730469 274.85820313 90.55730469 274.85820313 91.08203125 276.5546875 C92.67589491 280.00339834 94.52584032 282.00150793 97.41796875 284.4453125 C101.27201164 285.54646761 103.4154992 285.83263028 107.16796875 284.3828125 C110.87142312 281.19372679 112.50024599 277.16621068 113.41796875 272.4453125 C113.53938383 270.19772165 113.59339345 267.946148 113.60546875 265.6953125 C113.61964844 264.52484375 113.63382812 263.354375 113.6484375 262.1484375 C113.52585853 257.42124781 112.84146684 252.77883627 112.22195435 248.09559631 C111.20615102 240.18438609 110.68272552 232.24891611 110.15701294 224.29263306 C109.849724 219.6630078 109.52422044 215.03466038 109.19921875 210.40625 C109.13392471 209.47426285 109.06863068 208.5422757 109.00135803 207.58204651 C108.39332543 198.9683063 107.71776839 190.3614223 106.98046875 181.7578125 C106.92029572 181.05551514 106.86012268 180.35321777 106.79812622 179.62963867 C105.87401255 168.93931331 104.79650802 158.2676379 103.67611694 147.59631348 C98.19232395 95.2646306 98.19232395 95.2646306 98.04296875 69.8203125 C98.02911133 68.54099854 98.01525391 67.26168457 98.00097656 65.94360352 C98.06573385 53.16170692 100.50573938 39.52580599 109.08203125 29.5 C115.59111679 23.5853515 122.53535912 20.71203301 131.29296875 20.8828125 C132.0816333 20.89231934 132.87029785 20.90182617 133.68286133 20.91162109 C140.20626251 21.14395221 145.07573512 22.58246664 150.41796875 26.4453125 C151.04703125 26.868125 151.67609375 27.2909375 152.32421875 27.7265625 C175.06189293 44.87954478 176.75121921 85.49002798 181.04876709 111.23590088 C181.39957243 113.33522347 181.75345229 115.43400639 182.10791016 117.53271484 C188.98953336 158.45944338 194.2550962 199.68084595 199.74370575 240.81331635 C200.07392309 243.28684785 200.40480635 245.76028939 200.73590088 248.23370361 C200.9544808 249.86706369 201.17304776 251.50042549 201.39160156 253.13378906 C201.55257513 254.33665998 201.55257513 254.33665998 201.71680069 255.56383133 C202.23598314 259.44762471 202.75259339 263.33172581 203.26306152 267.2166748 C205.32873277 282.93509496 207.50233897 298.63348 210.02761078 314.28554535 C210.27169491 315.80427176 210.51215981 317.32358567 210.74845123 318.84354401 C213.45078547 336.13125482 217.63922772 353.90439762 229.41796875 367.4453125 C234.79633775 371.34726648 238.83389164 372.23540175 245.41796875 371.4453125 C248.79270134 370.85110742 248.79270134 370.85110742 251.41796875 369.4453125 C252.44809963 367.69003236 252.44809963 367.69003236 253.41796875 365.4453125 C253.92972656 364.46820313 254.44148438 363.49109375 254.96875 362.484375 C260.95374991 350.88594945 265.15889483 339.0401382 268.42578125 326.40625 C269.38789729 323.5350533 270.45379157 321.72020697 272.41796875 319.4453125 C273.79686044 323.08952626 274.67091264 326.64181355 275.31640625 330.46948242 C276.35319809 336.29860868 277.71521738 342.008541 279.16796875 347.74609375 C279.6994121 349.87950914 280.23065591 352.01297424 280.76171875 354.14648438 C281.58843158 357.45113178 282.41731087 360.75520281 283.25 364.05834961 C289.21005998 387.74499795 289.21005998 387.74499795 290.41796875 399.4453125 C286.53861652 398.72487882 283.2432016 397.61132898 279.60546875 396.0703125 C260.89278367 388.76728495 240.33052002 388.03126475 221.74438477 396.11157227 C214.14792322 399.63558232 207.58729004 403.72083791 201.41796875 409.4453125 C200.81082031 409.96222656 200.20367187 410.47914063 199.578125 411.01171875 C190.22710899 419.47216181 184.07804308 431.56352707 180.41796875 443.4453125 C180.12599609 444.37802979 180.12599609 444.37802979 179.828125 445.32958984 C173.07456563 467.60419702 175.0969134 492.55615526 185.41796875 513.4453125 C186.01225787 514.69635863 186.60597054 515.94767869 187.19921875 517.19921875 C197.10239412 537.80033066 209.91077574 556.27250296 224.89453125 573.51953125 C227.36478574 576.38364984 229.73994647 579.30696474 232.10546875 582.2578125 C235.2996517 586.18648672 238.62851143 589.81620522 242.30078125 593.30078125 C244.06896657 595.09180291 245.67939941 596.91023211 247.30859375 598.82421875 C252.32940586 604.60610419 257.78571167 609.96233133 263.20703125 615.36474609 C265.0493464 617.20167149 266.88621753 619.04392049 268.72265625 620.88671875 C269.90462718 622.06802933 271.08690804 623.24902992 272.26953125 624.4296875 C272.81235748 624.97453796 273.35518372 625.51938843 273.91445923 626.08074951 C276.93804474 629.08592112 280.02928991 631.84417107 283.41796875 634.4453125 C281.90196941 639.25500088 279.18869687 642.41952912 275.91796875 646.1328125 C275.1127478 647.05646606 275.1127478 647.05646606 274.29125977 647.9987793 C266.35155453 657.02357367 257.89809307 665.04873199 248.41796875 672.4453125 C247.45890625 673.198125 246.49984375 673.9509375 245.51171875 674.7265625 C225.63241535 690.00223775 203.0599088 701.28985521 179.41796875 709.4453125 C178.73782715 709.68830078 178.05768555 709.93128906 177.35693359 710.18164062 C130.90931149 726.70367291 73.84678618 728.75029113 27.41796875 711.4453125 C26.46059814 711.1037915 26.46059814 711.1037915 25.48388672 710.75537109 C-7.23102581 699.05268254 -37.93679379 676.49087947 -58.58203125 648.4453125 C-59.36964844 647.38957031 -60.15726563 646.33382812 -60.96875 645.24609375 C-70.65398442 632.09196796 -78.57346413 618.18127414 -85.58203125 603.4453125 C-86.08355713 602.41035645 -86.08355713 602.41035645 -86.59521484 601.35449219 C-97.18412725 579.39341923 -105.03401708 556.11926029 -112.8453064 533.05728149 C-127.2061666 490.6707038 -145.28392814 453.08607235 -169.8671875 415.60546875 C-173.03417125 410.7736233 -176.11622184 405.88858416 -179.20703125 401.0078125 C-184.42924168 392.77409604 -189.73461376 384.59819892 -195.08203125 376.4453125 C-247.8065511 295.92220331 -247.8065511 295.92220331 -244.58203125 269.4453125 C-242.34452588 260.26672866 -238.62047457 254.17657163 -230.51953125 249.1328125 C-224.6320836 245.67654508 -219.36898764 244.57544924 -212.58203125 245.4453125 C-203.88122765 247.9513313 -197.2174824 252.4021165 -190.58203125 258.4453125 C-189.45861328 259.46431641 -189.45861328 259.46431641 -188.3125 260.50390625 C-175.36209353 272.86462696 -165.32601793 288.74290026 -155.140625 303.38671875 C-151.63798658 308.39993941 -148.00989963 313.30967057 -144.33203125 318.1953125 C-143.68016846 319.06293213 -143.02830566 319.93055176 -142.35668945 320.82446289 C-137.68864216 327.01969316 -132.94114695 333.14531492 -128.12109375 339.22265625 C-126.00276746 341.89762892 -123.93309754 344.60626336 -121.87329102 347.32641602 C-117.83113971 352.65196843 -113.65680519 357.84612261 -109.33203125 362.9453125 C-108.84871338 363.52087891 -108.36539551 364.09644531 -107.86743164 364.68945312 C-103.87129372 369.34716704 -100.00440339 373.68035288 -94.01953125 375.5703125 C-90.42544433 375.77652788 -90.42544433 375.77652788 -87.70703125 373.1953125 C-84.06137335 368.47740228 -84.14631088 364.17457186 -84.58203125 358.4453125 C-85.16069028 355.512691 -86.08417394 352.76013731 -87.08203125 349.9453125 C-87.37972412 349.07914307 -87.67741699 348.21297363 -87.98413086 347.32055664 C-93.70543928 331.04766591 -100.2443625 315.05123118 -106.57177734 299.00750732 C-120.24867098 264.3203204 -133.26422218 229.44882888 -145.33096313 194.16491699 C-146.1487639 191.77433344 -146.96895602 189.38456626 -147.7918396 186.99572754 C-170.92029326 119.73402419 -170.92029326 119.73402419 -160.95703125 97.3828125 C-155.53223429 87.53042391 -148.13234964 81.9620853 -137.58203125 78.4453125 C-128.12216838 77.55480072 -119.92365344 78.73471999 -112.0234375 84.22265625 C-84.56616926 107.2250791 -75.0906107 151.0307978 -62.69898987 183.18528748 C-57.8642167 195.72983842 -52.97520071 208.25175776 -48.03662109 220.75585938 C-46.68444444 224.18554947 -45.33716724 227.61711186 -43.99147034 231.04934692 C-37.71290605 247.06062708 -31.40310486 263.06064066 -24.91641235 278.98895264 C-24.32814855 280.4361028 -23.74258344 281.88435354 -23.16000366 283.33380127 C-17.90087893 297.7249975 -17.90087893 297.7249975 -8.58203125 309.4453125 C-4.4881818 310.06524921 -4.4881818 310.06524921 -0.58203125 309.4453125 C2.62182052 306.84184437 4.24161507 305.355478 5.03808594 301.24487305 C4.84019766 291.51734518 3.19657477 282.63123303 0.66796875 273.2578125 C0.26284262 271.70232823 -0.14092576 270.14648982 -0.54345703 268.59033203 C-1.85996147 263.53390133 -3.21718369 258.48887839 -4.58203125 253.4453125 C-4.81635864 252.57771301 -5.05068604 251.71011353 -5.29211426 250.81622314 C-7.50355937 242.63395157 -9.73051097 234.45597176 -11.97949219 226.28393555 C-16.0884815 211.34567867 -20.04315676 196.37025929 -23.92919922 181.37255859 C-25.78326648 174.22920244 -27.65653246 167.10041153 -29.7109375 160.01171875 C-31.50848592 153.8010221 -33.05339363 147.55390727 -34.51953125 141.2578125 C-36.04949126 134.76292579 -37.59226595 128.28403264 -39.37744141 121.85424805 C-62.94237806 36.61747002 -62.94237806 36.61747002 -49.26171875 9.86328125 C-45.0441425 2.91465152 -38.83587648 -2.51762125 -31.03515625 -5.08203125 C-19.8978738 -7.22790892 -9.66837474 -5.82150249 0 0 Z " transform="translate(287.58203125,96.5546875)" style="fill: #818932;"></path><path d="M0 0 C0.78890625 0.39703125 1.5778125 0.7940625 2.390625 1.203125 C18.56559798 10.05358191 28.90910724 26.42677614 36 43 C36 43.66 36 44.32 36 45 C36.66 45 37.32 45 38 45 C38.26425781 44.12988281 38.52851562 43.25976562 38.80078125 42.36328125 C42.04271481 33.27108323 47.89393796 25.37875413 54 18 C54.45761719 17.39671875 54.91523437 16.7934375 55.38671875 16.171875 C63.95957268 5.26543619 77.64321773 -1.91551841 91 -5 C107.53809653 -6.6949527 121.59216274 -4.3201403 135 6 C136.03125 6.721875 137.0625 7.44375 138.125 8.1875 C148.89718097 17.58704849 154.16589686 34.10586732 155.13720703 47.95654297 C157.13926822 84.55489168 136.7061977 116.24242058 113.26318359 142.578125 C111.65479076 144.38857723 110.07946319 146.22680428 108.5 148.0625 C107.33778451 149.37894313 106.1706469 150.69104882 105 152 C104.22398437 152.86882812 103.44796875 153.73765625 102.6484375 154.6328125 C96.06062923 161.9223447 89.1868997 168.9181493 82.25 175.875 C81.36296387 176.76662842 80.47592773 177.65825684 79.56201172 178.5769043 C75.12527591 183.00326032 70.63144449 187.28628749 65.87646484 191.36865234 C62.72446788 194.10891304 59.71894663 197.0030182 56.6875 199.875 C39.48706897 216 39.48706897 216 34 216 C32.19165039 214.72167969 32.19165039 214.72167969 30.34765625 212.921875 C29.66050537 212.261875 28.97335449 211.601875 28.26538086 210.921875 C27.53843018 210.20515625 26.81147949 209.4884375 26.0625 208.75 C24.52405352 207.26498655 22.98498592 205.78061631 21.4453125 204.296875 C20.68766602 203.56146484 19.93001953 202.82605469 19.14941406 202.06835938 C16.29564174 199.32220318 13.37062952 196.66063773 10.4375 194 C5.38174548 189.36843171 0.48232295 184.58884127 -4.375 179.75 C-5.02927979 179.1003125 -5.68355957 178.450625 -6.35766602 177.78125 C-10.17270501 173.95405655 -13.79007083 170.01012297 -17.32080078 165.91992188 C-19.38084656 163.56455695 -21.52306984 161.29804671 -23.67871094 159.03051758 C-29.66513361 152.72319438 -35.1692245 146.18447587 -40.45703125 139.28515625 C-42.69738503 136.36284585 -45.05182182 133.55542049 -47.4375 130.75 C-69.66805251 103.62793057 -82.02201902 75.34401086 -80 40 C-79.40327 35.35132772 -77.97035106 31.24761039 -76 27 C-75.57589844 25.98421875 -75.15179688 24.9684375 -74.71484375 23.921875 C-68.72253636 10.63531042 -58.76144278 1.39018449 -45.375 -4.1875 C-29.96453396 -9.45950154 -14.30611376 -7.40671138 0 0 Z " transform="translate(565,514)" style="fill: #F06D4E;"></path><path d="M0 0 C2.5 0.25 2.5 0.25 4.5 2.25 C6.39812942 19.5729285 1.2055084 33.3338631 -8.75 47.4375 C-15.5773322 54.41999884 -23.19335541 58.48476694 -32.5 61.25 C-33.41072266 61.54197266 -33.41072266 61.54197266 -34.33984375 61.83984375 C-50.280701 64.8665888 -64.89096191 60.28046703 -78.1171875 51.515625 C-85.10055746 46.24789264 -92.3385461 40.05272607 -96.5 32.25 C-96.875 29.5 -96.875 29.5 -96.5 27.25 C-94.5 25.25 -94.5 25.25 -92.3125 24.75 C-88.81128695 25.37243788 -87.33229976 27.10334092 -84.77734375 29.45703125 C-73.3929933 38.42001042 -59.75323104 41.64766106 -45.5 40.25 C-31.37000325 37.56180461 -20.08618525 30.972342 -11.5 19.25 C-8.21487659 13.7915125 -6.15591107 8.36413319 -4.5 2.25 C-2.5 0.25 -2.5 0.25 0 0 Z " transform="translate(416.5,606.75)" style="fill: #FCFCF3;"></path><path d="M0 0 C2.057564 1.54407756 2.89131243 2.4389763 3.38476562 4.98608398 C3.39185547 5.73188721 3.39894531 6.47769043 3.40625 7.24609375 C3.4259082 8.0777002 3.44556641 8.90930664 3.46582031 9.76611328 C3.47709961 10.6476709 3.48837891 11.52922852 3.5 12.4375 C3.94420292 26.1028414 6.09097086 39.11785533 15.875 49.375 C24.97448 57.81239097 35.25637553 60.65405733 47.5390625 60.34765625 C60.1766244 59.07819461 69.56029341 52.30664655 77.47412109 42.76049805 C80.21125468 39.30122937 82.25271239 35.76440661 84.1875 31.8125 C86.55240841 27.16977612 86.55240841 27.16977612 90.625 25.625 C95.73622047 26.19291339 95.73622047 26.19291339 98 29 C98.80057563 37.95643984 93.01171669 44.96217366 87.6875 51.6875 C78.94742308 61.91091776 67.06268434 72.73224549 53 74 C36.12854049 74.98280347 20.97363001 72.04842538 7.6875 60.8125 C-3.29584879 50.21638466 -9.77606052 34.81161857 -10.16796875 19.49609375 C-10.17985248 17.80992514 -10.18621576 16.12371 -10.1875 14.4375 C-10.19974609 13.58736328 -10.21199219 12.73722656 -10.22460938 11.86132812 C-10.22654297 11.03955078 -10.22847656 10.21777344 -10.23046875 9.37109375 C-10.23457764 8.62786865 -10.23868652 7.88464355 -10.24291992 7.11889648 C-9.96268065 4.67447774 -9.29384335 3.0845412 -8 1 C-5.20129973 -0.39935013 -3.09501208 -0.25265405 0 0 Z " transform="translate(787,603)" style="fill: #674016;"></path><path d="M0 0 C4.92877912 2.87596802 7.59291999 7.43441669 9.6875 12.625 C10.8890312 18.23522645 9.74153538 22.88607886 6.9609375 27.8359375 C4.08711327 31.87339608 0.24690209 34.69991912 -4.3125 36.625 C-11.07166889 37.61358593 -16.73052611 36.60474065 -22.3125 32.625 C-26.6766294 28.14602509 -28.59660919 23.54738544 -28.75 17.3125 C-28.64169689 11.57243533 -27.04419421 7.93627614 -23.3125 3.625 C-16.90851564 -2.32155691 -8.1313203 -3.34357379 0 0 Z " transform="translate(924.3125,538.375)" style="fill: #64411B;"></path><path d="M0 0 C5.22423696 3.16702448 8.35980351 7.07941053 10.3125 12.9375 C10.85604411 19.35132044 9.87579876 23.55219087 6.3125 28.9375 C2.70636696 33.08455299 -0.13128346 35.61628231 -5.640625 36.30859375 C-11.92197552 36.43511384 -16.9594835 36.43495333 -22.09765625 32.53515625 C-26.66430666 27.9460653 -27.9352499 23.33741863 -28.25 16.9375 C-28.00915047 11.14981282 -26.90823886 7.02604569 -22.6875 2.9375 C-15.23662551 -2.28961435 -8.40223238 -4.17338605 0 0 Z " transform="translate(795.6875,499.0625)" style="fill: #63421C;"></path><path d="M0 0 C4.75814358 2.66873921 8.00029965 6.12589896 9.75 11.375 C10.37909175 19.00660489 10.78959486 25.32748616 5.75 31.375 C1.32232294 35.62861604 -2.78362944 36.72912929 -8.875 36.9375 C-15.05154297 36.67360613 -18.37007454 35.39694919 -22.67578125 30.87890625 C-27.39311496 25.5503124 -27.60605116 21.18160133 -27.5234375 14.31640625 C-26.92746799 7.90547708 -22.56231979 4.50193506 -17.93359375 0.57421875 C-12.74864168 -3.11900697 -5.55663119 -2.54107802 0 0 Z " transform="translate(422.25,497.625)" style="fill: #FCFCF5;"></path><path d="M0 0 C3.28374963 1.48513872 5.5415794 3.39057076 8 6 C8.825 6.86625 9.65 7.7325 10.5 8.625 C13.20007432 14.70016722 12.96798375 21.19794179 10.8125 27.4375 C7.31237372 32.38595439 3.75275218 35.89803286 -2 38 C-8.45441573 38.98375853 -13.67893501 37.79082408 -19 34 C-22.6904779 30.49267236 -24.81722501 27.24423715 -25.23828125 22.07421875 C-25.48703495 10.72319468 -25.48703495 10.72319468 -21 6 C-14.31834456 -0.22143937 -9.08081292 -1.11518755 0 0 Z " transform="translate(296,532)" style="fill: #FCFCF4;"></path><path d="M0 0 C1.33402432 0.73295252 2.6488545 1.50241787 3.9375 2.3125 C4.55882812 2.65152344 5.18015625 2.99054688 5.8203125 3.33984375 C13.82010171 8.20551641 17.20863618 16.84388631 19.39453125 25.57421875 C22.15390546 39.49019947 21.18482537 53.39317784 19.671875 67.40234375 C19.47331909 69.27805809 19.47331909 69.27805809 19.27075195 71.19166565 C17.71612261 85.68268843 15.96746954 100.15044169 14.19787598 114.61651611 C13.8489403 117.47564561 13.50315457 120.33515259 13.15733337 123.19466019 C11.62661041 135.84342359 10.08123585 148.48728167 8.3125 161.10546875 C7.02971651 170.28480486 6.04322007 179.47515531 5.17248535 188.7019043 C3.69996945 204.27768029 2.01780742 219.80475375 -0.0625 235.3125 C-0.3925 235.3125 -0.7225 235.3125 -1.0625 235.3125 C-1.15999865 223.16266835 -1.21954866 211.01610185 -0.6875 198.875 C-0.6412146 197.61671387 -0.6412146 197.61671387 -0.59399414 196.33300781 C-0.30254745 190.55254745 -0.30254745 190.55254745 1.9375 188.3125 C2.05688883 185.44716797 2.07749417 182.6727395 2 179.8125 C1.81692217 171.55365566 1.81692217 171.55365566 2.9375 169.3125 C3.13972356 167.64977297 3.30161387 165.98195815 3.4375 164.3125 C3.82638889 159.53472222 3.82638889 159.53472222 4.9375 157.3125 C5.16372081 155.60886178 5.34638473 153.89921299 5.5 152.1875 C5.58378906 151.27742187 5.66757812 150.36734375 5.75390625 149.4296875 C5.84478516 148.38167969 5.84478516 148.38167969 5.9375 147.3125 C6.5975 147.3125 7.2575 147.3125 7.9375 147.3125 C7.99284912 146.17707764 8.04819824 145.04165527 8.10522461 143.87182617 C8.31157745 139.66164673 8.5234778 135.45176171 8.73706055 131.24194336 C8.82874617 129.41942786 8.9189246 127.5968359 9.00756836 125.77416992 C9.13520025 123.15522061 9.26823941 120.53659362 9.40234375 117.91796875 C9.46022316 116.69438911 9.46022316 116.69438911 9.51927185 115.4460907 C9.6899199 112.19861767 9.90385979 109.41342063 10.9375 106.3125 C11.2450172 102.95970828 11.4464708 99.60630703 11.65625 96.24609375 C11.9375 93.3125 11.9375 93.3125 12.9375 91.3125 C13.14507376 88.66305153 13.31148372 86.02834277 13.4375 83.375 C13.80321207 75.71536378 13.80321207 75.71536378 14.9375 72.3125 C15.13719724 70.31552759 15.30009254 68.31472301 15.4375 66.3125 C15.6621657 63.03879975 15.89732775 60.43301674 16.9375 57.3125 C17.17013298 53.83786257 17.12758516 50.35664038 17.125 46.875 C17.12491943 45.88105225 17.12483887 44.88710449 17.12475586 43.86303711 C17.07014678 36.82766383 16.42787503 30.19552971 14.9375 23.3125 C14.71592731 21.89784359 14.5055944 20.48132408 14.3125 19.0625 C14.18875 18.155 14.065 17.2475 13.9375 16.3125 C12.9475 16.3125 11.9575 16.3125 10.9375 16.3125 C10.4425 13.3425 10.4425 13.3425 9.9375 10.3125 C9.2775 10.3125 8.6175 10.3125 7.9375 10.3125 C7.9375 9.6525 7.9375 8.9925 7.9375 8.3125 C7.07125 7.94125 7.07125 7.94125 6.1875 7.5625 C3.9375 6.3125 3.9375 6.3125 1.9375 4.25 C-2.15161883 0.28866613 -7.75590957 1.12926457 -13.125 1.125 C-13.94033203 1.11275391 -14.75566406 1.10050781 -15.59570312 1.08789062 C-16.38009766 1.08595703 -17.16449219 1.08402344 -17.97265625 1.08203125 C-18.68558838 1.07792236 -19.39852051 1.07381348 -20.13305664 1.06958008 C-22.38904047 1.20777954 -22.38904047 1.20777954 -25.0625 3.3125 C-27.25 2.9375 -27.25 2.9375 -29.0625 2.3125 C-20.83386168 -3.17325888 -9.17435807 -3.86205795 0 0 Z " transform="translate(807.0625,124.6875)" style="fill: #E39E2F;"></path><path d="M0 0 C1.15951172 -0.00386719 2.31902344 -0.00773437 3.51367188 -0.01171875 C23.27065894 0.01049259 23.27065894 0.01049259 26.48950195 2.54248047 C27.6875 4.125 27.6875 4.125 27.6875 6.125 C28.42355469 6.42792969 29.15960937 6.73085938 29.91796875 7.04296875 C35.53747724 9.45557147 39.53987294 11.54078062 43.6875 16.125 C45.99649653 17.88616783 48.33429489 19.59599333 50.69921875 21.28125 C52.98617709 23.40196579 53.56595845 25.26148967 54.6875 28.125 C56.1725 28.62 56.1725 28.62 57.6875 29.125 C62.37632085 33.80337804 65.37105353 38.37674859 66.203125 44.984375 C66.58552298 47.2447891 66.58552298 47.2447891 68.11352539 49.33081055 C73.52633936 58.9398777 73.14529893 71.89769203 73 82.5625 C72.98998516 83.92911721 72.98005756 85.29573506 72.97021484 86.66235352 C72.87040481 95.93699275 72.42180886 105.00206023 70.6875 114.125 C70.43613281 115.4553125 70.43613281 115.4553125 70.1796875 116.8125 C69.6875 119.0625 69.6875 119.0625 68.6875 122.125 C67.6975 122.62 67.6975 122.62 66.6875 123.125 C66.41000923 125.08852088 66.41000923 125.08852088 66.375 127.375 C66.04614882 131.12988251 65.77312506 132.01684204 63.3125 135.125 C60.6875 137.125 60.6875 137.125 57.6875 138.125 C58.73826913 133.82639901 60.14352766 130.05396247 62.0625 126.0625 C73.08109663 102.27013206 73.59324079 74.59219485 65.5 49.875 C58.63784307 32.01290793 46.35571 17.62706902 29.0234375 9.30078125 C11.68306291 1.63314238 -8.73283443 -0.11528942 -27 5.80078125 C-39.51073381 10.80212413 -49.8419538 17.70750207 -60.3125 26.125 C-60.3125 24.805 -60.3125 23.485 -60.3125 22.125 C-59.3225 22.125 -58.3325 22.125 -57.3125 22.125 C-57.3125 21.465 -57.3125 20.805 -57.3125 20.125 C-56.6525 20.125 -55.9925 20.125 -55.3125 20.125 C-54.9825 19.135 -54.6525 18.145 -54.3125 17.125 C-53.3225 17.125 -52.3325 17.125 -51.3125 17.125 C-50.9825 16.135 -50.6525 15.145 -50.3125 14.125 C-47.60546875 12.62109375 -47.60546875 12.62109375 -44.3125 11.125 C-43.38050781 10.64160156 -42.44851563 10.15820312 -41.48828125 9.66015625 C-27.30606148 2.36589042 -15.8474904 -0.05233073 0 0 Z " transform="translate(669.3125,485.875)" style="fill: #DF9E34;"></path><path d="M0 0 C5.47613669 1.18112752 8.3094788 2.52664097 12 7 C12 7.66 12 8.32 12 9 C12.7425 9.2475 13.485 9.495 14.25 9.75 C17.25979717 11.11808962 18.67810106 12.67810106 21 15 C22.682497 15.9581748 24.36595836 16.91474141 26.05664062 17.85839844 C29.29105355 19.75841287 32.28729572 21.97464918 35.3125 24.1875 C41.409482 28.73008267 41.409482 28.73008267 48.625 30.5625 C49.85089844 30.68818359 49.85089844 30.68818359 51.1015625 30.81640625 C52.04128906 30.90728516 52.04128906 30.90728516 53 31 C53 31.66 53 32.32 53 33 C54.11375 33.185625 54.11375 33.185625 55.25 33.375 C57.80141485 33.95486701 59.7267573 34.73708739 62 36 C62 36.66 62 37.32 62 38 C63.11375 38.309375 64.2275 38.61875 65.375 38.9375 C69 40 69 40 71 41 C71 41.66 71 42.32 71 43 C71.82177734 43.23783203 71.82177734 43.23783203 72.66015625 43.48046875 C78.0049256 45.05348217 83.28926828 46.76554336 88.5625 48.5625 C93.99444028 50.40994575 99.38307217 51.837877 105 53 C105.33 53.33 105.66 53.66 106 54 C107.68183948 54.23287008 109.3712416 54.41264166 111.0625 54.5625 C111.98160156 54.64628906 112.90070313 54.73007812 113.84765625 54.81640625 C114.91306641 54.90728516 114.91306641 54.90728516 116 55 C116 55.66 116 56.32 116 57 C116.58265625 57.04898438 117.1653125 57.09796875 117.765625 57.1484375 C122.41599847 57.57252816 126.97024068 58.14887587 131.5625 59 C157.31919896 63.35782533 184.73998413 62.32952122 210 56 C211.36172701 55.67342594 212.72371931 55.34795661 214.0859375 55.0234375 C222.46805943 53.0462162 222.46805943 53.0462162 230.625 50.3125 C233.79288723 49.08054386 236.63798071 48.42025241 240 48 C240 47.34 240 46.68 240 46 C241.56020867 45.34865075 243.12328579 44.70417036 244.6875 44.0625 C245.99267578 43.52302734 245.99267578 43.52302734 247.32421875 42.97265625 C249.88179265 42.0429688 252.3221323 41.45837375 255 41 C235.58915577 57.10899959 201.33852436 63.00814599 177.04296875 63.23828125 C176.19095886 63.2480751 175.33894897 63.25786896 174.46112061 63.26795959 C155.25322225 63.44305826 136.84712795 63.10381012 118 59 C116.95650391 58.78037598 115.91300781 58.56075195 114.83789062 58.33447266 C77.23543355 50.29873886 41.87810359 35.58224925 12 11 C10.84899638 10.06505733 9.69795361 9.13016285 8.546875 8.1953125 C2.68821388 3.39759616 2.68821388 3.39759616 0 1 C0 0.67 0 0.34 0 0 Z " transform="translate(656,758)" style="fill: #DDA03A;"></path><path d="M0 0 C1.66284536 3.32569071 -0.19221112 6.60752957 -1.24609375 9.99609375 C-1.49225937 10.8081427 -1.73842499 11.62019165 -1.99205017 12.45684814 C-2.80060126 15.11912469 -3.61913812 17.77822462 -4.4375 20.4375 C-4.99576372 22.27099401 -5.55321462 24.10473571 -6.10986328 25.9387207 C-7.2216243 29.59998831 -8.33639903 33.26031477 -9.45361328 36.91992188 C-11.45973632 43.49957615 -13.42476078 50.09105942 -15.375 56.6875 C-15.6939624 57.76515625 -16.0129248 58.8428125 -16.34155273 59.953125 C-19.94783792 72.1674438 -23.43976874 84.41405183 -26.8671875 96.6796875 C-30.04653602 108.00132725 -33.32961315 119.24301923 -37.125 130.375 C-46.14951383 153.64164118 -46.14951383 153.64164118 -47 178 C-45.1770235 180.61541322 -43.24910416 182.75089584 -41 185 C-42.32 185 -43.64 185 -45 185 C-48.77340381 181.14083701 -50.33216771 178.42056167 -50.4375 173 C-49.93703675 162.92122628 -48.78061915 153.3693605 -45 144 C-44.50874294 141.32589317 -44.24219298 138.71256139 -44 136 C-43.34 136 -42.68 136 -42 136 C-42 132.7 -42 129.4 -42 126 C-41.34 126 -40.68 126 -40 126 C-40 125.34 -40 124.68 -40 124 C-39.34 124 -38.68 124 -38 124 C-38.04060547 122.70255859 -38.04060547 122.70255859 -38.08203125 121.37890625 C-38.00043991 118.01812002 -37.5061114 115.19095558 -36.6875 111.9375 C-36.44386719 110.93589844 -36.20023438 109.93429687 -35.94921875 108.90234375 C-35 106 -35 106 -33.4609375 103.46875 C-31.85201262 100.74992507 -31.39187992 98.67257613 -30.9375 95.5625 C-30.28996992 91.53584236 -29.44927515 87.83022719 -28 84 C-27.01 84 -26.02 84 -25 84 C-25.05220703 83.05640625 -25.05220703 83.05640625 -25.10546875 82.09375 C-25.2996349 75.9544014 -24.46462652 71.57316448 -22 66 C-21.4290536 64.50319458 -20.86632023 63.00322633 -20.3125 61.5 C-19.879375 60.345 -19.44625 59.19 -19 58 C-18.34 58 -17.68 58 -17 58 C-15.38714222 50.32644382 -14.09084475 42.62038139 -12.875 34.875 C-12.69324219 33.72773438 -12.51148438 32.58046875 -12.32421875 31.3984375 C-11.8810121 28.59923758 -11.43964255 25.79976151 -11 23 C-10.01 22.67 -9.02 22.34 -8 22 C-8 19.36 -8 16.72 -8 14 C-6.68 14 -5.36 14 -4 14 C-3.896875 12.989375 -3.79375 11.97875 -3.6875 10.9375 C-2.96295233 6.78781792 -1.77730734 3.78643737 0 0 Z " transform="translate(961,230)" style="fill: #E39D2D;"></path><path d="M0 0 C8.49348602 5.06088545 13.36869992 11.75155236 15.8828125 21.28515625 C18.68038246 37.84039619 14.99723997 54.59323913 11.4375 70.75 C11.2912619 71.41950684 11.1450238 72.08901367 10.99435425 72.77880859 C7.43755854 88.99324113 3.02792853 104.97148913 -1.5 120.9375 C-2.43777855 117.91080057 -2.5043206 115.7996091 -1.8984375 112.69921875 C-1.74028564 111.88702881 -1.58213379 111.07483887 -1.41918945 110.23803711 C-1.14981567 108.94458374 -1.14981567 108.94458374 -0.875 107.625 C-0.69477295 106.7285376 -0.5145459 105.8320752 -0.32885742 104.90844727 C0.80142273 99.5286977 2.26118198 94.51933617 4.1875 89.375 C6.56736911 82.75621509 7.10425534 76.69048876 7.13549805 69.72045898 C7.19787463 64.75219087 7.99494242 60.72790572 9.75927734 56.07373047 C11.96395692 49.71547527 11.68363868 43.33668976 11.6875 36.6875 C11.70586914 35.04587891 11.70586914 35.04587891 11.72460938 33.37109375 C11.73623583 26.89903601 11.16979228 21.19427108 9.5 14.9375 C8.84 14.9375 8.18 14.9375 7.5 14.9375 C7.005 12.9575 7.005 12.9575 6.5 10.9375 C5.84 10.9375 5.18 10.9375 4.5 10.9375 C3.1328125 9.546875 3.1328125 9.546875 1.625 7.6875 C1.09261719 7.05070312 0.56023438 6.41390625 0.01171875 5.7578125 C-0.48714844 5.15710938 -0.98601563 4.55640625 -1.5 3.9375 C-5.21888886 -0.34485687 -7.88195385 -0.85069521 -13.4453125 -1.30078125 C-23.44582976 -1.53420856 -32.02469952 0.38783743 -40.0703125 6.56640625 C-42.34502317 8.74789107 -43.82900693 11.27628882 -45.5 13.9375 C-46.16 13.9375 -46.82 13.9375 -47.5 13.9375 C-44.47991697 6.52456894 -36.9866221 1.29284442 -29.875 -1.8125 C-19.66910844 -5.88733385 -9.71920154 -4.80984376 0 0 Z " transform="translate(964.5,106.0625)" style="fill: #E29E33;"></path><path d="M0 0 C5.25174236 4.22945663 8.4834193 9.52603756 11.546875 15.4609375 C11.98902344 16.316875 12.43117188 17.1728125 12.88671875 18.0546875 C19.9180161 32.58746015 22.39314935 48.79888155 25.54418945 64.50048828 C26.10092327 67.26447365 26.66348045 70.0271629 27.23046875 72.7890625 C27.41394867 73.68435669 27.59742859 74.57965088 27.78646851 75.5020752 C29.23178955 82.37143198 31.01529022 89.10968256 33.088974 95.81622314 C34.96532214 102.09246664 34.96532214 102.09246664 33.546875 105.4609375 C30.56145306 98.57308257 28.45547349 91.78964696 26.859375 84.4609375 C26.64732422 83.54054688 26.43527344 82.62015625 26.21679688 81.671875 C24.8657907 75.62004924 24.01872241 69.64272521 23.546875 63.4609375 C22.886875 63.4609375 22.226875 63.4609375 21.546875 63.4609375 C21.546875 61.8109375 21.546875 60.1609375 21.546875 58.4609375 C20.061875 57.9659375 20.061875 57.9659375 18.546875 57.4609375 C18.3515625 55.57291667 18.15625 53.68489583 17.9609375 51.796875 C17.44713831 48.89827204 16.48699621 46.25086556 15.546875 43.4609375 C14.85862026 40.81814685 14.18956962 38.17706333 13.546875 35.5234375 C12.31555362 30.46828607 10.98867335 25.46160521 9.546875 20.4609375 C9.1446875 18.759375 9.1446875 18.759375 8.734375 17.0234375 C7.04422449 11.95298597 5.23001464 7.10461655 0.5 4.20703125 C-1.03169686 3.5336128 -2.58582333 2.909394 -4.15625 2.33203125 C-6.33101918 1.50724634 -8.04899308 0.49605602 -10.015625 -0.7265625 C-16.13918255 -3.91982871 -23.70397383 -3.37524815 -30.453125 -3.5390625 C-30.453125 -2.8790625 -30.453125 -2.2190625 -30.453125 -1.5390625 C-31.57460938 -1.39210938 -31.57460938 -1.39210938 -32.71875 -1.2421875 C-40.0403416 -0.24731925 -40.0403416 -0.24731925 -45.453125 4.4609375 C-46.2575 4.9146875 -47.061875 5.3684375 -47.890625 5.8359375 C-52.23266445 8.58942593 -54.83259754 12.19601614 -57.078125 16.7734375 C-58.453125 19.4609375 -58.453125 19.4609375 -61.453125 20.4609375 C-58.47536073 10.93209184 -50.36708967 3.35984732 -42.078125 -1.7890625 C-28.27705139 -9.01671279 -13.26497961 -8.32229612 0 0 Z " transform="translate(626.453125,352.5390625)" style="fill: #E39E2F;"></path><path d="M0 0 C0 3 0 3 -2.3125 5.625 C-5 8 -5 8 -8 9 C-8 9.66 -8 10.32 -8 11 C-10.38781927 13.52426609 -12.88468883 15.89355892 -15.4375 18.25 C-18.23763055 21.25501815 -20.30744612 24.4183308 -22.515625 27.8671875 C-24 30 -24 30 -26.75 32.625 C-29.58785226 35.62051072 -30.3378651 37.95362004 -31 42 C-30.09977979 44.18183199 -30.09977979 44.18183199 -29 46 C-30.216875 46.495 -31.43375 46.99 -32.6875 47.5 C-36.93449943 49.59737582 -38.54851634 51.96394663 -40.7734375 56.04296875 C-42.06561648 58.1046938 -43.32842022 59.27921737 -45.25 60.75 C-48.16985607 63.13897315 -48.35323952 63.55061077 -49 67 C-52.38181818 71.69090909 -52.38181818 71.69090909 -55 73 C-55.28875 73.639375 -55.5775 74.27875 -55.875 74.9375 C-57 77 -57 77 -58.9375 77.875 C-61.32671951 78.92051039 -61.32671951 78.92051039 -62.5 82.0625 C-64 85 -64 85 -66.1875 85.875 C-66.785625 85.91625 -67.38375 85.9575 -68 86 C-68 86.66 -68 87.32 -68 88 C-68.57621094 88.22945313 -69.15242188 88.45890625 -69.74609375 88.6953125 C-72.58335636 90.33767942 -74.06642637 92.28279648 -76.0625 94.875 C-76.73410156 95.73867188 -77.40570312 96.60234375 -78.09765625 97.4921875 C-78.72542969 98.31976563 -79.35320312 99.14734375 -80 100 C-80.55042969 100.71800781 -81.10085938 101.43601562 -81.66796875 102.17578125 C-83.07935021 104.02265397 -83.07935021 104.02265397 -84.25 106.3125 C-88.23964585 112.43945612 -94.17513567 118.15136098 -101 121 C-101.99 120.67 -102.98 120.34 -104 120 C-103.12730469 119.45085937 -102.25460937 118.90171875 -101.35546875 118.3359375 C-98.00947119 116.09873667 -95.13776126 113.48159503 -92.3125 110.625 C-91.79631104 110.10607178 -91.28012207 109.58714355 -90.74829102 109.05249023 C-85.99552054 104.17352075 -81.84654141 98.90854934 -77.71484375 93.50390625 C-75.08486744 90.07272001 -72.31620601 86.77891834 -69.5 83.5 C-64.78433035 77.98947005 -60.28338111 72.33535978 -55.828125 66.61328125 C-53.37180557 63.46192332 -50.87286521 60.34686869 -48.36425781 57.23706055 C-43.72996317 51.48939776 -39.23014861 45.68817948 -34.9296875 39.68359375 C-31.36696779 34.72896128 -27.68157091 29.86659735 -24 25 C-23.06994141 23.75669922 -23.06994141 23.75669922 -22.12109375 22.48828125 C-18.40673776 17.59397325 -14.43063741 13.24957771 -10 9 C-9.13375 8.113125 -8.2675 7.22625 -7.375 6.3125 C-5.02997514 4.02918632 -2.59006309 1.99804867 0 0 Z " transform="translate(1117,360)" style="fill: #E59D29;"></path><path d="M0 0 C1.18654404 4.38677368 0.73593573 7.51079204 0 12 C-0.33 12.33 -0.66 12.66 -1 13 C-1.59253729 16.27216454 -2.14300072 19.54467968 -2.63085938 22.83398438 C-3.25304491 26.51609878 -3.8338431 28.75472077 -5.96875 31.90625 C-8.68121581 36.03754408 -9.32443914 40.00193712 -10.1875 44.8125 C-10.51128396 46.52792014 -10.83794914 48.24279983 -11.16796875 49.95703125 C-11.30485107 50.70960205 -11.4417334 51.46217285 -11.58276367 52.23754883 C-12 54 -12 54 -13 55 C-13.39148761 56.51165654 -13.73972457 58.03469632 -14.0625 59.5625 C-14.23910156 60.38878906 -14.41570313 61.21507812 -14.59765625 62.06640625 C-14.73042969 62.70449219 -14.86320313 63.34257812 -15 64 C-15.66 64 -16.32 64 -17 64 C-17.20496094 65.07121094 -17.40992188 66.14242187 -17.62109375 67.24609375 C-17.89302709 68.64326851 -18.16517352 70.04040181 -18.4375 71.4375 C-18.57220703 72.14455078 -18.70691406 72.85160156 -18.84570312 73.58007812 C-19.88671875 78.88671875 -19.88671875 78.88671875 -21 80 C-21.20604085 81.32781878 -21.3662959 82.66295895 -21.5 84 C-21.88888889 87.88888889 -21.88888889 87.88888889 -23 89 C-23.36760731 91.32817964 -23.70241581 93.6618385 -24 96 C-24.99 96 -25.98 96 -27 96 C-27.12375 97.2375 -27.2475 98.475 -27.375 99.75 C-27.60610872 102.06108716 -27.85206271 103.72238928 -28.94921875 105.78125 C-30.45742786 108.96586998 -30.87145715 112.30195853 -31.4375 115.75 C-32.43304835 121.46616602 -33.66258408 126.65733504 -36 132 C-36.66 132 -37.32 132 -38 132 C-38.12375 133.2065625 -38.12375 133.2065625 -38.25 134.4375 C-39.20196675 138.95934205 -41.01580179 142.84702701 -43 147 C-43.66 147 -44.32 147 -45 147 C-44.82186768 146.46850342 -44.64373535 145.93700684 -44.46020508 145.3894043 C-39.71742655 131.20411501 -35.18697627 117.00070162 -31.34277344 102.54321289 C-29.07384116 94.08852553 -26.49325028 85.74136548 -23.88867188 77.38500977 C-22.01128057 71.3431661 -20.20882873 65.29615119 -18.5625 59.1875 C-13.15448914 39.23622978 -6.65056358 19.56677066 0 0 Z " transform="translate(873,236)" style="fill: #E29D2F;"></path><path d="M0 0 C6.5530973 4.71662439 10.414188 10.07800725 12.55078125 17.8359375 C16.86179093 45.51882346 -1.31577573 73.19293786 -16.44921875 94.8359375 C-17.42282463 95.86165266 -18.41488193 96.87149603 -19.44921875 97.8359375 C-18.92653409 95.07317573 -18.34052288 92.5098499 -17.44921875 89.8359375 C-16.78921875 89.8359375 -16.12921875 89.8359375 -15.44921875 89.8359375 C-15.53171875 89.1140625 -15.61421875 88.3921875 -15.69921875 87.6484375 C-15.37332685 83.98215361 -13.85865367 82.53742513 -11.44921875 79.8359375 C-11.11921875 79.1759375 -10.78921875 78.5159375 -10.44921875 77.8359375 C-9.45921875 77.8359375 -8.46921875 77.8359375 -7.44921875 77.8359375 C-7.34609375 76.7634375 -7.24296875 75.6909375 -7.13671875 74.5859375 C-6.44197185 70.79640893 -5.70321961 69.74735528 -3.44921875 66.8359375 C-2.72876508 63.68475425 -2.72876508 63.68475425 -2.44921875 60.8359375 C-0.96421875 60.3409375 -0.96421875 60.3409375 0.55078125 59.8359375 C1.21379714 57.99597009 1.21379714 57.99597009 1.48828125 55.7734375 C2.26010626 51.68730511 3.53180573 48.47542876 5.55078125 44.85546875 C9.97524634 35.92012323 10.04934907 24.34053189 7.828125 14.69921875 C5.98757143 10.19098025 4.04927149 7.96022456 -0.44921875 5.8359375 C-0.44921875 5.1759375 -0.44921875 4.5159375 -0.44921875 3.8359375 C-1.43921875 3.5059375 -2.42921875 3.1759375 -3.44921875 2.8359375 C-4.46941448 1.8565496 -5.4707168 0.85698301 -6.44921875 -0.1640625 C-10.8629723 -2.37093927 -16.64846776 -1.60100366 -21.44921875 -1.1640625 C-24.38517478 -0.10050461 -26.73897537 1.25070081 -29.44921875 2.8359375 C-30.10921875 2.5059375 -30.76921875 2.1759375 -31.44921875 1.8359375 C-21.28730969 -5.59960572 -10.83155971 -6.52651264 0 0 Z " transform="translate(1150.44921875,357.1640625)" style="fill: #E29E31;"></path><path d="M0 0 C0.66 0 1.32 0 2 0 C-0.70040335 9.2468357 -3.43980343 18.48165167 -7.2421875 27.34375 C-9.25100163 32.1235957 -11.13966106 36.9329532 -12.953125 41.7890625 C-13.21370193 42.48674744 -13.47427887 43.18443237 -13.74275208 43.90325928 C-14.29225178 45.37614423 -14.84148471 46.84912872 -15.39047241 48.32220459 C-21.09321879 63.60066495 -27.05193893 78.76534677 -33.1875 93.875 C-33.55693726 94.78517883 -33.92637451 95.69535767 -34.30700684 96.63311768 C-35.36317264 99.23265214 -36.42113254 101.83144352 -37.48046875 104.4296875 C-37.79241684 105.1948468 -38.10436493 105.9600061 -38.42576599 106.74835205 C-40.24056799 111.18494025 -42.09975308 115.59931374 -44 120 C-45.24333054 116.27000837 -44.19569463 114.82824681 -42.7578125 111.32421875 C-41.67683456 108.00884826 -41.538807 104.76544987 -41.40625 101.296875 C-40.90547552 98.46557314 -39.99556747 97.05204579 -38 95 C-37.01 95 -36.02 95 -35 95 C-34.855625 93.989375 -34.71125 92.97875 -34.5625 91.9375 C-34.376875 90.638125 -34.19125 89.33875 -34 88 C-33.855625 86.741875 -33.71125 85.48375 -33.5625 84.1875 C-33 81 -33 81 -31 79 C-30.54188325 77.02764667 -30.54188325 77.02764667 -30.375 74.875 C-30.25125 73.59625 -30.1275 72.3175 -30 71 C-29.34 71 -28.68 71 -28 71 C-27.34 68.69 -26.68 66.38 -26 64 C-25.34 64 -24.68 64 -24 64 C-23.67 60.7 -23.34 57.4 -23 54 C-21.515 53.505 -21.515 53.505 -20 53 C-17.67383578 49.60149057 -17.31214776 45.74354109 -16.625 41.75 C-15.54150062 35.91349355 -14.22026973 31.03167145 -11 26 C-10.01 25.67 -9.02 25.34 -8 25 C-7.86271484 23.82050781 -7.86271484 23.82050781 -7.72265625 22.6171875 C-6.78238996 17.91077353 -5.14013202 13.60241648 -3.4375 9.125 C-3.10814453 8.24585938 -2.77878906 7.36671875 -2.43945312 6.4609375 C-1.63113386 4.30541947 -0.81787706 2.15190559 0 0 Z " transform="translate(1077,266)" style="fill: #E29D2D;"></path><path d="M0 0 C0.33 0 0.66 0 1 0 C1.08301497 1.64492618 1.14007466 3.29116332 1.1875 4.9375 C1.23970703 6.31228516 1.23970703 6.31228516 1.29296875 7.71484375 C1.03420805 10.6164137 0.53679295 12.5104695 -0.4453125 15.19921875 C-2.28448207 20.37877664 -2.69648306 25.41942119 -3.0625 30.875 C-3.19133259 32.72712793 -3.32771935 34.57875017 -3.47265625 36.4296875 C-3.52687744 37.23647949 -3.58109863 38.04327148 -3.63696289 38.87451172 C-4 41 -4 41 -6 44 C-6.34490335 46.16530607 -6.59156303 48.34686736 -6.78125 50.53125 C-6.90113281 51.81644531 -7.02101563 53.10164063 -7.14453125 54.42578125 C-7.26399748 55.7837686 -7.38247653 57.14184314 -7.5 58.5 C-7.72994677 61.15737386 -7.97101116 63.81288303 -8.21875 66.46875 C-8.3724707 68.23895508 -8.3724707 68.23895508 -8.52929688 70.04492188 C-9 73 -9 73 -11 76 C-11.39840034 77.96710167 -11.72476534 79.94942111 -12 81.9375 C-12.78307633 87.57984462 -12.78307633 87.57984462 -13.98632812 89.91040039 C-15.06035265 92.12441192 -15.44500041 93.91387086 -15.78125 96.34375 C-15.89992432 97.17229492 -16.01859863 98.00083984 -16.14086914 98.85449219 C-16.25938232 99.72750977 -16.37789551 100.60052734 -16.5 101.5 C-16.75849886 103.30737984 -17.01761131 105.11467202 -17.27734375 106.921875 C-17.46272705 108.23188477 -17.46272705 108.23188477 -17.65185547 109.56835938 C-18.73771182 117.15260152 -20.00764878 124.59983834 -22 132 C-22.33 132 -22.66 132 -23 132 C-23.13583423 126.29576597 -22.68530211 121.0530088 -21.6796875 115.4453125 C-21.54076584 114.63960312 -21.40184418 113.83389374 -21.25871277 113.00376892 C-20.80399374 110.37633076 -20.33969583 107.75069039 -19.875 105.125 C-19.55213227 103.27409792 -19.22979232 101.4231037 -18.90795898 99.57202148 C-18.25454454 95.82092046 -17.59704767 92.07057019 -16.93603516 88.32080078 C-16.10776649 83.62047342 -15.29218611 78.91805197 -14.48046875 74.21484375 C-11.71120908 58.22092981 -8.76797619 42.26127607 -5.75 26.3125 C-5.57719513 25.39437531 -5.40439026 24.47625061 -5.22634888 23.53030396 C-4.73259069 20.9114374 -4.23423399 18.29348939 -3.734375 15.67578125 C-3.58876633 14.90123596 -3.44315765 14.12669067 -3.2931366 13.32867432 C-2.42138626 8.79952333 -1.33136585 4.41662028 0 0 Z " transform="translate(749,188)" style="fill: #E09D33;"></path><path d="M0 0 C0.66 0 1.32 0 2 0 C-0.3122593 16.477784 -2.79245871 32.92784483 -5.3125 49.375 C-5.71315935 51.9923465 -6.11379385 54.6096968 -6.5144043 57.22705078 C-7.11434069 61.14627123 -7.71441612 65.06547005 -8.3150177 68.98458862 C-9.47892522 76.5822092 -10.63415618 84.18107466 -11.78125 91.78125 C-14.22179542 107.91567792 -16.71787058 124.01013871 -20 140 C-20.3337474 141.6665838 -20.66730016 143.33320676 -21 145 C-21.33 145 -21.66 145 -22 145 C-21.71576039 139.99588687 -21.37323058 134.99809069 -21 130 C-20.94618164 129.25121582 -20.89236328 128.50243164 -20.83691406 127.73095703 C-20.09478041 117.90083074 -18.57111144 108.81859464 -15.82177734 99.35229492 C-13.85874962 92.2616406 -13.14736826 85.24318297 -12.72070312 77.91088867 C-12.41901477 73.19612079 -11.79229732 68.86430542 -10.57421875 64.29296875 C-8.68591122 57.19126563 -7.81907592 50.03479194 -6.9375 42.75 C-5.14980576 28.16126626 -5.14980576 28.16126626 -3.9453125 23.62890625 C-2.86557399 19.48395966 -2.36904159 15.43912276 -1.9375 11.1875 C-1.12453125 3.37359375 -1.12453125 3.37359375 0 0 Z " transform="translate(729,285)" style="fill: #FDEDBC;"></path><path d="M0 0 C0.625 1.875 0.625 1.875 1 4 C0.34 4.66 -0.32 5.32 -1 6 C-1.71927295 8.31765729 -2.3909893 10.65095874 -3 13 C-3.66 13 -4.32 13 -5 13 C-5 13.99 -5 14.98 -5 16 C-5.66 16 -6.32 16 -7 16 C-7.185625 17.175625 -7.185625 17.175625 -7.375 18.375 C-8 21 -8 21 -10 23 C-10.45375 24.175625 -10.9075 25.35125 -11.375 26.5625 C-13 30 -13 30 -15.1875 30.9375 C-16.0846875 30.9684375 -16.0846875 30.9684375 -17 31 C-17 31.70125 -17 32.4025 -17 33.125 C-18.53501436 37.53816629 -22.06457444 39.65805964 -26 42 C-26.66 42 -27.32 42 -28 42 C-28.0825 42.5775 -28.165 43.155 -28.25 43.75 C-29.2128986 46.63869579 -30.82728832 47.89119161 -33 50 C-33.45375 50.804375 -33.9075 51.60875 -34.375 52.4375 C-36.05885905 55.09281619 -37.927114 56.6226459 -40.38671875 58.5390625 C-42.86542421 60.78370134 -44.6403816 63.47152423 -46.5078125 66.23046875 C-48.19249471 68.22827252 -49.67378459 68.86602601 -52 70 C-53.72563758 71.66184445 -53.72563758 71.66184445 -55.3125 73.625 C-55.91835938 74.3365625 -56.52421875 75.048125 -57.1484375 75.78125 C-58.34521544 77.21536365 -59.53819826 78.65265672 -60.7265625 80.09375 C-64.70659914 84.81890766 -68.9045903 88.50600478 -74 92 C-74.66 91.67 -75.32 91.34 -76 91 C-75.278125 90.443125 -74.55625 89.88625 -73.8125 89.3125 C-69.79844873 86.01205784 -66.32575332 82.41819707 -63 78.4375 C-61.24642253 76.35373237 -59.73881234 74.79908641 -57.5625 73.125 C-55.10521155 71.08724861 -53.52718634 69.16689712 -51.625 66.625 C-48.94086833 63.06358719 -46.19141736 60.31248294 -42.74609375 57.51171875 C-37.13547148 52.65420014 -32.67642915 46.4160392 -28.09375 40.6171875 C-26.69982915 38.87478644 -25.28297611 37.15048257 -23.84375 35.4453125 C-14.60013585 24.47665769 -7.02098999 12.48434312 0 0 Z " transform="translate(726,624)" style="fill: #E0A037;"></path><path d="M0 0 C0.66 0 1.32 0 2 0 C1.67 0.99 1.34 1.98 1 3 C0.34 3 -0.32 3 -1 3 C-1.268125 3.598125 -1.53625 4.19625 -1.8125 4.8125 C-3 7 -3 7 -4.5625 8.375 C-6.62278935 10.70402275 -6.6639317 12.97538534 -7 16 C-7.66 16 -8.32 16 -9 16 C-9.309375 16.61875 -9.61875 17.2375 -9.9375 17.875 C-10.625 19.25 -11.3125 20.625 -12 22 C-12.66 22 -13.32 22 -14 22 C-14.04898438 22.98742187 -14.09796875 23.97484375 -14.1484375 24.9921875 C-14.22320313 26.27351563 -14.29796875 27.55484375 -14.375 28.875 C-14.44460938 30.15117187 -14.51421875 31.42734375 -14.5859375 32.7421875 C-15 36 -15 36 -17 38 C-17.33 37.34 -17.66 36.68 -18 36 C-18.33 36.99 -18.66 37.98 -19 39 C-19.66 39 -20.32 39 -21 39 C-21.19335938 39.85464844 -21.38671875 40.70929688 -21.5859375 41.58984375 C-21.97652344 43.24693359 -21.97652344 43.24693359 -22.375 44.9375 C-22.75785156 46.59072266 -22.75785156 46.59072266 -23.1484375 48.27734375 C-23.42945313 49.17582031 -23.71046875 50.07429688 -24 51 C-24.99 51.495 -24.99 51.495 -26 52 C-27.13350534 54.01669827 -27.13350534 54.01669827 -28 56 C-28.66 56 -29.32 56 -30 56 C-32.47197926 63.29233882 -34.75723186 70.63415742 -37 78 C-37.66 78 -38.32 78 -39 78 C-39.33 78.99 -39.66 79.98 -40 81 C-40.66 80.67 -41.32 80.34 -42 80 C-18.74629635 21.56978464 -18.74629635 21.56978464 -5 6 C-4.06217655 4.81275542 -3.12464664 3.62527888 -2.1875 2.4375 C-1.465625 1.633125 -0.74375 0.82875 0 0 Z " transform="translate(1032,198)" style="fill: #E29D2E;"></path><path d="M0 0 C0.98774449 3.44714679 0.87577254 5.17164417 -0.375 8.5625 C-0.65085937 9.32691406 -0.92671875 10.09132812 -1.2109375 10.87890625 C-1.47132813 11.57886719 -1.73171875 12.27882812 -2 13 C-3.38944965 17.16834896 -3.35152111 21.36857844 -3.51757812 25.7265625 C-3.60881644 27.48935555 -3.79703561 29.24655504 -4 31 C-4.66 31.33 -5.32 31.66 -6 32 C-6.68025637 33.99541868 -7.34490497 35.99617991 -8 38 C-8.7734375 39.11375 -8.7734375 39.11375 -9.5625 40.25 C-11.40223078 43.76948498 -11.54191447 46.86802265 -11.7890625 50.79296875 C-12 53 -12 53 -13 55 C-13.66 55 -14.32 55 -15 55 C-15.12375 55.86625 -15.2475 56.7325 -15.375 57.625 C-15.98058121 60.89513853 -16.88306035 63.87256899 -18 67 C-18.99 67 -19.98 67 -21 67 C-21.12375 68.051875 -21.2475 69.10375 -21.375 70.1875 C-21.91140782 73.45958771 -22.63880035 76.00536076 -24 79 C-25.54946383 75.03720656 -24.39005939 72.28524057 -23.0859375 68.35546875 C-22.87442047 67.70862625 -22.66290344 67.06178375 -22.44497681 66.39533997 C-21.76467027 64.32271709 -21.07011016 62.25519912 -20.375 60.1875 C-19.93004327 58.83950471 -19.48602415 57.49119954 -19.04296875 56.14257812 C-17.92760721 52.75583795 -16.79919847 49.37361249 -15.66647339 45.99264526 C-15.01941387 44.05804426 -14.37626992 42.12219191 -13.73461914 40.18579102 C-10.78255229 31.28885624 -7.75245629 22.42095745 -4.6875 13.5625 C-4.22844165 12.23374951 -3.76945703 10.90497355 -3.31054688 9.57617188 C-2.20775008 6.38386536 -1.1042274 3.19181189 0 0 Z " transform="translate(899,157)" style="fill: #E19C2D;"></path><path d="M0 0 C2.19728323 2.19728323 2.42602776 3.04698023 3.0703125 5.9921875 C3.24433594 6.77980469 3.41835938 7.56742187 3.59765625 8.37890625 C3.85869141 9.61447266 3.85869141 9.61447266 4.125 10.875 C4.30675781 11.69097656 4.48851562 12.50695312 4.67578125 13.34765625 C5.47952543 17.05213132 6 20.17353509 6 24 C6.66 24 7.32 24 8 24 C11.16727335 29.1468192 11.35050464 33.158256 11 39 C11.99 39.33 12.98 39.66 14 40 C14.09688221 45.44693314 14.12862175 50.63904667 13 56 C13.66 56 14.32 56 15 56 C16.66666667 57.66666667 18.33333333 59.33333333 20 61 C22.16620544 62.29519995 22.16620544 62.29519995 24 63 C24 63.66 24 64.32 24 65 C24.53625 65.226875 25.0725 65.45375 25.625 65.6875 C29.25673618 67.6945121 33.11417648 70.22835295 35 74 C35.86625 73.7834375 35.86625 73.7834375 36.75 73.5625 C38.83333333 73.04166667 40.91666667 72.52083333 43 72 C41.02 74.31 39.04 76.62 37 79 C36.319375 78.319375 35.63875 77.63875 34.9375 76.9375 C34.47214844 76.47730469 34.00679687 76.01710938 33.52734375 75.54296875 C32.51915833 74.52446941 31.53133007 73.485357 30.56640625 72.42578125 C25.86482151 67.39590631 20.48574956 63.72101581 14.79296875 59.91796875 C12 58 12 58 10 56 C10.66 56 11.32 56 12 56 C10.74644221 49.4333947 9.29349069 42.9551726 7.6171875 36.484375 C7.16770091 34.72142244 6.71849013 32.95839953 6.26953125 31.1953125 C5.57029455 28.46045435 4.86885449 25.72621828 4.16259766 22.99316406 C3.47440225 20.32515668 2.79516793 17.65499363 2.1171875 14.984375 C1.90472382 14.17176208 1.69226013 13.35914917 1.47335815 12.52191162 C0.39418062 8.24368145 -0.24164556 4.45305509 0 0 Z " transform="translate(566,440)" style="fill: #DB9F2B;"></path><path d="M0 0 C5.75 1.875 5.75 1.875 8 3 C8 3.66 8 4.32 8 5 C8.66 5 9.32 5 10 5 C10 6.32 10 7.64 10 9 C10.598125 9.12375 11.19625 9.2475 11.8125 9.375 C16.35185384 10.67195824 17.74276256 13.14388604 20 17 C21.90839485 19.14694421 23.56216047 20.37477365 26 22 C26.61875 22.639375 27.2375 23.27875 27.875 23.9375 C31.76062484 27.70884175 35.85801555 29.44544656 41 31 C41.33 29.68 41.66 28.36 42 27 C44.31 26.34 46.62 25.68 49 25 C49.33 23.35 49.66 21.7 50 20 C50.94875 19.9175 51.8975 19.835 52.875 19.75 C56.10461791 19.34925077 56.10461791 19.34925077 57.375 16.9375 C57.58125 16.298125 57.7875 15.65875 58 15 C58.99 15.33 59.98 15.66 61 16 C57.23712605 19.81210782 53.37353773 23.49243123 49.4375 27.125 C48.87353516 27.64964844 48.30957031 28.17429687 47.72851562 28.71484375 C44.92082278 31.30908626 42.12468585 33.78445257 39 36 C36.05104918 34.66363695 33.90299881 33.17858069 31.56640625 30.9453125 C30.92364746 30.33623047 30.28088867 29.72714844 29.61865234 29.09960938 C28.94012207 28.44798828 28.2615918 27.79636719 27.5625 27.125 C26.12945504 25.76244341 24.69585332 24.40047219 23.26171875 23.0390625 C22.54677246 22.35875977 21.83182617 21.67845703 21.09521484 20.97753906 C18.602363 18.62469591 16.07238388 16.31553633 13.53564453 14.01025391 C8.67911481 9.59353929 4.0954563 5.14857363 0 0 Z " transform="translate(563,695)" style="fill: #D2806A;"></path><path d="M0 0 C-0.63316013 5.61665086 -2.58015481 10.44373602 -4.67578125 15.640625 C-5.04221237 16.56284851 -5.40864349 17.48507202 -5.78617859 18.4352417 C-6.95604862 21.37575059 -8.13413556 24.31288625 -9.3125 27.25 C-10.09364357 29.20941839 -10.87424798 31.16905181 -11.65429688 33.12890625 C-13.42885959 37.5838404 -15.20589184 42.03773951 -16.9972229 46.48596191 C-17.70021405 48.24841392 -18.39107228 50.01573112 -19.07284546 51.78649902 C-19.5959581 53.13499939 -19.5959581 53.13499939 -20.12963867 54.51074219 C-20.44092209 55.32387878 -20.75220551 56.13701538 -21.07292175 56.97479248 C-22 59 -22 59 -24 61 C-23.17812739 56.61667943 -22.09845718 52.32059823 -21 48 C-20.34 48 -19.68 48 -19 48 C-18.97421875 47.20335937 -18.9484375 46.40671875 -18.921875 45.5859375 C-18.57366957 39.08082695 -17.96110687 35.32273736 -14 30 C-13.63858045 27.67085177 -13.30300475 25.33746522 -13 23 C-11.5625 20.5625 -11.5625 20.5625 -10 19 C-9.34 19 -8.68 19 -8 19 C-8 15.37 -8 11.74 -8 8 C-7.34 8 -6.68 8 -6 8 C-5.896875 7.236875 -5.79375 6.47375 -5.6875 5.6875 C-4.83195622 2.34310158 -3.70341243 0 0 0 Z " transform="translate(1035,617)" style="fill: #E49D2C;"></path><path d="M0 0 C0.33 0 0.66 0 1 0 C1.25330602 7.21922146 1.25330602 7.21922146 0.00390625 11.0703125 C-1.50958602 16.07384269 -1.25214297 21.13085557 -1.1875 26.3125 C-1.1865332 27.81393555 -1.1865332 27.81393555 -1.18554688 29.34570312 C-1.35841026 34.33553076 -1.35841026 34.33553076 0 39 C0.20802924 41.4414543 0.37410021 43.86678005 0.5 46.3125 C0.73820617 50.65550895 1.1217734 54.74677035 2 59 C2.11678799 61.67678073 2.0454506 64.31841457 2 67 C-1.89427914 61.15858129 -2.49867144 54.40131288 -3.53515625 47.57421875 C-3.87125176 45.02320166 -3.87125176 45.02320166 -5 43 C-6.17066442 28.11922522 -5.92691534 13.82241326 0 0 Z " transform="translate(564,373)" style="fill: #DD9D2D;"></path><path d="M0 0 C0.91168945 0.00499512 1.82337891 0.00999023 2.76269531 0.01513672 C14.60672182 0.31802629 24.35986863 4.27232627 33.75 11.5 C34.78125 12.221875 35.8125 12.94375 36.875 13.6875 C42.73782932 18.73149841 46.56046599 26.21228632 48.75 33.5 C47.76 33.5 46.77 33.5 45.75 33.5 C45.40388672 32.53900391 45.40388672 32.53900391 45.05078125 31.55859375 C40.02661883 18.23364125 33.47786267 13.61370563 20.8515625 7.61328125 C18.75 6.5 18.75 6.5 16.75 4.5 C2.34294536 -0.62954473 -13.33907311 3.45885314 -26.82421875 9.31640625 C-29.4157654 10.51397646 -29.4157654 10.51397646 -32.25 12.5 C-33.24 12.17 -34.23 11.84 -35.25 11.5 C-32.96444655 10.21704266 -30.67243287 8.94887901 -28.375 7.6875 C-27.74335937 7.33107422 -27.11171875 6.97464844 -26.4609375 6.60742188 C-17.93985371 1.96343121 -9.69124855 -0.0705937 0 0 Z " transform="translate(666.25,508.5)" style="fill: #D07A64;"></path><path d="M0 0 C0.66 0.33 1.32 0.66 2 1 C1.06027344 1.85271484 1.06027344 1.85271484 0.1015625 2.72265625 C-6.35280468 8.8129103 -6.35280468 8.8129103 -9 17 C-9.66 17 -10.32 17 -11 17 C-11.1546875 18.0209375 -11.1546875 18.0209375 -11.3125 19.0625 C-12 22 -12 22 -13.5 25.375 C-15.16001064 28.9438668 -15.16001064 28.9438668 -15.5 32.8125 C-15.665 33.864375 -15.83 34.91625 -16 36 C-16.99 36.66 -17.98 37.32 -19 38 C-19.59584217 39.91883745 -19.59584217 39.91883745 -19.73046875 42.1328125 C-19.81103516 42.93847656 -19.89160156 43.74414062 -19.97460938 44.57421875 C-20.04486328 45.41597656 -20.11511719 46.25773437 -20.1875 47.125 C-20.26935547 47.97449219 -20.35121094 48.82398438 -20.43554688 49.69921875 C-20.63602459 51.7983384 -20.81961611 53.89905824 -21 56 C-21.639375 56.12375 -22.27875 56.2475 -22.9375 56.375 C-23.618125 56.58125 -24.29875 56.7875 -25 57 C-25.33 57.66 -25.66 58.32 -26 59 C-24.98094474 37.59983954 -15.80099773 14.50425932 0 0 Z " transform="translate(776,128)" style="fill: #E19C2E;"></path><path d="M0 0 C0.33 0 0.66 0 1 0 C7.06737282 24.90558681 -3.19477167 51.09461156 -14 73 C-15.04449911 69.86650268 -14.93423645 69.01031744 -14 66 C-13.34 66 -12.68 66 -12 66 C-11.90203125 65.16597656 -11.8040625 64.33195313 -11.703125 63.47265625 C-10.85748197 57.10846345 -9.7445277 51.8082234 -6.87890625 46.06640625 C-5.94167485 43.8628711 -5.61212087 42.00051998 -5.375 39.625 C-5 36 -5 36 -3 33 C-2.36707617 30.88719655 -2.36707617 30.88719655 -2 29 C-1.34 29 -0.68 29 0 29 C0 19.43 0 9.86 0 0 Z " transform="translate(739,555)" style="fill: #FDEEC0;"></path><path d="M0 0 C1.61680841 5.60743667 -0.20466715 10.56985393 -2 16 C-3.30406884 18.01920337 -4.63823419 20.01924973 -6 22 C-7.49566434 25.9510041 -8.77070583 29.95902235 -10 34 C-10.66 34 -11.32 34 -12 34 C-12.23783203 35.23363281 -12.23783203 35.23363281 -12.48046875 36.4921875 C-14.28056921 45.10482284 -16.19668999 53.45024399 -22.8125 59.625 C-23.8953125 60.305625 -23.8953125 60.305625 -25 61 C-22.46173715 52.87045885 -19.19468621 45.08305666 -15.875 37.25 C-15.29510245 35.87501405 -14.71543317 34.49993181 -14.13598633 33.12475586 C-9.47025128 22.06343674 -4.75571086 11.02292672 0 0 Z " transform="translate(973,317)" style="fill: #E29E33;"></path><path d="M0 0 C1.68702456 2.95010385 2.24924229 5.05714601 2.24291992 8.44555664 C2.24599655 9.31648453 2.24907318 10.18741241 2.25224304 11.08473206 C2.24505753 12.01712204 2.23787201 12.94951202 2.23046875 13.91015625 C2.23001053 14.87400742 2.22955231 15.83785858 2.2290802 16.83091736 C2.22606241 18.86588779 2.21819026 20.900856 2.20581055 22.93579102 C2.18754812 26.05428224 2.18530099 29.17247649 2.18554688 32.29101562 C2.18063164 34.26823174 2.1748033 36.24544584 2.16796875 38.22265625 C2.16685593 39.15707047 2.1657431 40.09148468 2.16459656 41.05421448 C2.15821671 41.9219902 2.15183685 42.78976593 2.14526367 43.68383789 C2.14145187 44.44676651 2.13764008 45.20969513 2.13371277 45.9957428 C2 48 2 48 1 51 C0.79617566 52.82044156 0.63497534 54.64581923 0.5 56.47265625 C0.4175 57.53677734 0.335 58.60089844 0.25 59.69726562 C0.08304473 61.94464004 -0.08362094 64.19203598 -0.25 66.43945312 C-0.3325 67.50228516 -0.415 68.56511719 -0.5 69.66015625 C-0.5721875 70.63605713 -0.644375 71.61195801 -0.71875 72.61743164 C-1 75 -1 75 -2 77 C-2.66 77 -3.32 77 -4 77 C-4.495 77.99 -4.495 77.99 -5 79 C-4.59627788 69.53341226 -3.71740347 60.2082826 -2.5 50.8125 C-1.157823 40.32482885 0.02819715 30.03209142 0.0546875 19.44140625 C0.05766846 18.25272949 0.06064941 17.06405273 0.0637207 15.83935547 C0.06195578 10.55942146 0.0384264 5.27978752 0 0 Z " transform="translate(827,153)" style="fill: #FDEFBF;"></path><path d="M0 0 C0.33 0 0.66 0 1 0 C1.23721409 6.95827993 0.9295859 13.72580837 0.0625 20.625 C-0.02435059 21.32367188 -0.11120117 22.02234375 -0.20068359 22.7421875 C-0.8645388 27.72907759 -0.8645388 27.72907759 -2 30 C-2.22622081 31.70363822 -2.40888473 33.41328701 -2.5625 35.125 C-2.64628906 36.03507812 -2.73007812 36.94515625 -2.81640625 37.8828125 C-2.87699219 38.58148438 -2.93757812 39.28015625 -3 40 C-3.66 40 -4.32 40 -5 40 C-5.04898438 40.93457031 -5.09796875 41.86914062 -5.1484375 42.83203125 C-5.59279072 50.63885772 -6.18482452 58.41006051 -7 66.1875 C-7.0829834 66.98841064 -7.1659668 67.78932129 -7.25146484 68.61450195 C-7.66612356 72.45763063 -8.15216922 76.22261107 -9 80 C-9.66 80 -10.32 80 -11 80 C-11.495 80.99 -11.495 80.99 -12 82 C-10.53950865 69.72826926 -8.81362305 57.5013898 -7.02319336 45.27392578 C-6.56431618 42.13741395 -6.10914427 39.0003797 -5.65429688 35.86328125 C-3.90962916 23.88358313 -2.0507627 11.93119594 0 0 Z " transform="translate(725,320)" style="fill: #DD9E38;"></path><path d="M0 0 C0.66 0.33 1.32 0.66 2 1 C-2.05008226 7.19745212 -6.10764049 13.38995945 -10.17041016 19.57910156 C-11.55136582 21.68474281 -12.93061215 23.79150614 -14.30810547 25.89941406 C-16.28944749 28.93071022 -18.27692056 31.95790549 -20.265625 34.984375 C-21.18616669 36.39707672 -21.18616669 36.39707672 -22.12530518 37.83831787 C-22.70560486 38.71892883 -23.28590454 39.59953979 -23.88378906 40.50683594 C-24.64323822 41.66599518 -24.64323822 41.66599518 -25.41802979 42.84857178 C-27.09795141 45.13321074 -28.94897227 47.04674922 -31 49 C-30.49046204 44.54154289 -28.87043538 42.3769828 -26 39 C-24.28158672 36.31927528 -22.87335576 33.71918017 -21.5625 30.8125 C-20 28 -20 28 -17.875 27.125 C-17.25625 26.75375 -16.6375 26.3825 -16 26 C-15.73607808 24.08656608 -15.48527347 22.16882852 -15.34765625 20.2421875 C-14.75963109 16.44975556 -12.88659599 13.29934927 -11 10 C-10.01 10 -9.02 10 -8 10 C-8 9.34 -8 8.68 -8 8 C-7.34 7.67 -6.68 7.34 -6 7 C-5.67 6.01 -5.34 5.02 -5 4 C-4.34 4 -3.68 4 -3 4 C-2.67 3.01 -2.34 2.02 -2 1 C-1.34 0.67 -0.68 0.34 0 0 Z " transform="translate(1113,479)" style="fill: #E49D2E;"></path><path d="M0 0 C1 2 1 2 0.27832031 4.27709961 C-0.11774414 5.22593018 -0.51380859 6.17476074 -0.921875 7.15234375 C-1.36539307 8.22661621 -1.80891113 9.30088867 -2.26586914 10.40771484 C-2.75563232 11.57254395 -3.24539551 12.73737305 -3.75 13.9375 C-4.50494209 15.75994375 -5.25987205 17.58239264 -6.01405334 19.40515137 C-6.80445672 21.31288383 -7.59811601 23.21923939 -8.39208984 25.12548828 C-10.98487085 31.36061683 -13.51996642 37.61925451 -16.0625 43.875 C-16.96995489 46.10160211 -17.87750017 48.32816739 -18.78515625 50.5546875 C-20.20241628 54.03164274 -21.60872983 57.51255996 -23 61 C-24.125 57.25 -24.125 57.25 -23 55 C-22.72579082 52.17956274 -22.5538093 49.35946953 -22.37890625 46.53125 C-22 44 -22 44 -20 42 C-19.01 42 -18.02 42 -17 42 C-16.90203125 41.443125 -16.8040625 40.88625 -16.703125 40.3125 C-15.90792002 36.25421253 -15.01709653 32.75276317 -13 29.125 C-10.41303154 24.35648352 -9.74345051 19.32154051 -9 14 C-8.34 14 -7.68 14 -7 14 C-6.86335938 13.42507813 -6.72671875 12.85015625 -6.5859375 12.2578125 C-6.02206438 10.08502142 -5.37322864 7.99095841 -4.625 5.875 C-4.39039063 5.19179688 -4.15578125 4.50859375 -3.9140625 3.8046875 C-3 2 -3 2 0 0 Z " transform="translate(1031,386)" style="fill: #E19D2D;"></path><path d="M0 0 C0.33 0 0.66 0 1 0 C1.02894547 3.45831586 1.04678 6.91660072 1.0625 10.375 C1.07087891 11.35984375 1.07925781 12.3446875 1.08789062 13.359375 C1.09111328 14.30039062 1.09433594 15.24140625 1.09765625 16.2109375 C1.10289307 17.08024902 1.10812988 17.94956055 1.11352539 18.84521484 C1 21 1 21 0 23 C-2.05495439 33.16987639 -2.56519091 43.45197508 -3.02905273 53.79052734 C-3.39567504 61.72290086 -4.01218533 68.60780458 -7 76 C-7.33 76 -7.66 76 -8 76 C-8.27269068 68.74078602 -7.35265262 61.65269195 -6.46157837 54.46203613 C-5.99348965 50.68417809 -5.54026084 46.90453404 -5.0859375 43.125 C-4.99377457 42.36125061 -4.90161163 41.59750122 -4.80665588 40.81060791 C-3.76553382 32.13606603 -2.84951803 23.44929439 -1.9519043 14.75878906 C-1.84015869 13.68854492 -1.72841309 12.61830078 -1.61328125 11.515625 C-1.51829346 10.59040039 -1.42330566 9.66517578 -1.32543945 8.71191406 C-0.974709 5.78924802 -0.50418448 2.89979398 0 0 Z " transform="translate(816,274)" style="fill: #FCEBB8;"></path><path d="M0 0 C-0.99 0.66 -1.98 1.32 -3 2 C-3.495 0.515 -3.495 0.515 -4 -1 C-6.1282187 -1.92206007 -6.1282187 -1.92206007 -8.6875 -2.5 C-11.75961029 -3.32327356 -14.08828687 -4.04990128 -16.875 -5.625 C-29.06899924 -10.99035967 -51.35884937 -9.46612195 -64 -6 C-65.67697198 -5.01737965 -67.34467377 -4.01866229 -69 -3 C-72.8125 -2.3125 -72.8125 -2.3125 -76 -2 C-74.47364973 -5.05270053 -72.13818332 -5.30865263 -69 -6.5 C-67.3603125 -7.13421875 -67.3603125 -7.13421875 -65.6875 -7.78125 C-42.48143371 -15.45105157 -20.91644891 -11.16380182 0 0 Z " transform="translate(707,499)" style="fill: #FCEAB7;"></path><path d="M0 0 C2.2477975 2.05233685 3.0022242 3.00667261 4 6 C4.66 6.33 5.32 6.66 6 7 C8.00357481 10.25580906 9.72049238 13.21388482 11 16.8125 C11.78313616 19.15615704 11.78313616 19.15615704 13.9375 19.88671875 C17.03907332 21.56086344 17.57837387 23.97605083 18.875 27.125 C20.2672845 29.44547417 21.60730028 29.83636283 24 31 C25.125 32.69140625 25.125 32.69140625 26 34.5625 C26.66 35.696875 27.32 36.83125 28 38 C28.65484375 38.15210938 29.3096875 38.30421875 29.984375 38.4609375 C32 39 32 39 33.265625 40.84765625 C33.59046875 41.57855469 33.9153125 42.30945313 34.25 43.0625 C34.58515625 43.79597656 34.9203125 44.52945313 35.265625 45.28515625 C35.50796875 45.85105469 35.7503125 46.41695312 36 47 C35.34 47.66 34.68 48.32 34 49 C23.37173544 36.75300176 13.27747926 24.10749148 4.25 10.625 C3.62242798 9.68841553 3.62242798 9.68841553 2.98217773 8.73291016 C1.2972721 6.16865986 -0.02481424 3.92555728 -1 1 C-0.67 0.67 -0.34 0.34 0 0 Z " transform="translate(501,617)" style="fill: #D17A64;"></path><path d="M0 0 C2.21480602 3.32220903 3.28553891 6.60015975 4.4375 10.375 C4.65631836 11.08889893 4.87513672 11.80279785 5.10058594 12.53833008 C8.08488315 22.43345735 10.25736622 31.96489455 10.7890625 42.3203125 C10.89969084 45.10041447 10.89969084 45.10041447 12 48 C12.03954234 50.33299825 12.04401732 52.66708189 12 55 C10.30535495 51.92059561 9.41101851 49.01202941 8.6328125 45.58984375 C8.38869629 44.52604492 8.14458008 43.46224609 7.89306641 42.36621094 C7.63960449 41.23473633 7.38614258 40.10326172 7.125 38.9375 C6.86251465 37.77895508 6.6000293 36.62041016 6.32958984 35.42675781 C5.54612574 31.95268151 4.77181023 28.47668181 4 25 C3.77957031 24.01596191 3.55914063 23.03192383 3.33203125 22.01806641 C2.7546567 19.43045385 2.18721767 16.84094287 1.625 14.25 C1.45758301 13.49581787 1.29016602 12.74163574 1.11767578 11.96459961 C0.2565831 7.9089365 -0.16944595 4.14490867 0 0 Z " transform="translate(647,393)" style="fill: #FDF0C2;"></path><path d="M0 0 C0.33 0 0.66 0 1 0 C1.43982787 10.77578272 -0.6833993 21.4758639 -2.5 32.0625 C-2.61835205 32.76431396 -2.7367041 33.46612793 -2.85864258 34.18920898 C-4.10436874 41.22355013 -6.22420695 46.82825896 -10 52.875 C-10.35578125 53.46796875 -10.7115625 54.0609375 -11.078125 54.671875 C-11.99269997 56.15294043 -12.99023537 57.58212216 -14 59 C-14.66 59 -15.32 59 -16 59 C-15.00329384 56.40950427 -13.95566895 53.91227259 -12.703125 51.43359375 C-5.01133171 35.57443931 -2.75320956 17.26475393 0 0 Z " transform="translate(712,404)" style="fill: #E0A037;"></path><path d="M0 0 C4.16285067 4.16285067 4.27021777 10.947017 4.37963867 16.59594727 C4.37810791 17.36865967 4.37657715 18.14137207 4.375 18.9375 C4.37411377 19.75726318 4.37322754 20.57702637 4.37231445 21.42163086 C4.21037633 29.97147042 2.3577496 37.81970747 0 46 C-0.30808594 47.0828125 -0.61617187 48.165625 -0.93359375 49.28125 C-1.59412049 51.53146549 -2.27655781 53.76938659 -3 56 C-4.07868195 52.6951021 -3.90419019 50.38236521 -3.1875 47 C-3.01605469 46.154375 -2.84460937 45.30875 -2.66796875 44.4375 C-2 42 -2 42 -0.97045898 40.39160156 C0.49920245 36.76976422 0.24430326 33.14377284 0.1953125 29.296875 C0.1924826 28.45908508 0.18965271 27.62129517 0.18673706 26.75811768 C0.17556349 24.08859837 0.15046421 21.4194175 0.125 18.75 C0.11496654 16.93750485 0.10584133 15.12500444 0.09765625 13.3125 C0.0756334 8.87487007 0.04112304 4.43749237 0 0 Z " transform="translate(1083,208)" style="fill: #DCA03B;"></path><path d="M0 0 C0.33 0 0.66 0 1 0 C1.24645264 1.20833496 1.49290527 2.41666992 1.74682617 3.66162109 C2.68172221 8.23666868 3.62500463 12.80995646 4.57055664 17.3828125 C4.97511376 19.34492254 5.37753303 21.30747486 5.77758789 23.27050781 C7.98690506 34.10364645 10.284932 44.82833873 13.55473328 55.39950562 C15.41617631 61.62409763 15.41617631 61.62409763 14 65 C11.09631272 58.2838722 9.01889985 51.71323211 7.5 44.5625 C7.2927832 43.62035645 7.08556641 42.67821289 6.87207031 41.70751953 C6.23748242 38.80717104 5.61639921 35.90426433 5 33 C4.80341797 32.07654785 4.60683594 31.1530957 4.40429688 30.20166016 C3.52504221 26.0609668 2.65502047 21.91855399 1.796875 17.7734375 C1.38364085 15.81665225 0.96328716 13.85990761 0.45629883 11.92529297 C-0.12019977 9.49283285 -0.09534542 7.24625189 -0.0625 4.75 C-0.05347656 3.85796875 -0.04445313 2.9659375 -0.03515625 2.046875 C-0.02355469 1.37140625 -0.01195312 0.6959375 0 0 Z " transform="translate(646,393)" style="fill: #DBA341;"></path><path d="M0 0 C0.33 0 0.66 0 1 0 C1.42830802 5.88923525 0.6103476 9.52859851 -1.9765625 14.8125 C-3.37772215 17.80734505 -4.1834103 20.80169033 -5 24 C-6.32 24 -7.64 24 -9 24 C-9.1546875 25.85625 -9.1546875 25.85625 -9.3125 27.75 C-9.73801682 31.2792866 -10.48112592 33.37160966 -13 36 C-13.66 35.67 -14.32 35.34 -15 35 C-5.49338088 11.41761516 -5.49338088 11.41761516 0 0 Z " transform="translate(989,280)" style="fill: #E39D30;"></path><path d="M0 0 C0.66 0.33 1.32 0.66 2 1 C1.63874023 1.60658447 1.27748047 2.21316895 0.90527344 2.83813477 C-7.49199865 16.97902425 -15.45566002 31.25977394 -22.89355469 45.92895508 C-24 48 -24 48 -26 51 C-25.38256711 46.18699901 -23.99651518 41.9129048 -22.1875 37.4375 C-21.93935547 36.79103516 -21.69121094 36.14457031 -21.43554688 35.47851562 C-19.80138775 31.39103873 -17.79227635 28.3676545 -15 25 C-13.78670403 22.62149137 -13.78670403 22.62149137 -12.875 20.25 C-11.21532091 16.10766046 -11.21532091 16.10766046 -9 15 C-7.94647157 12.69034152 -6.94280904 10.3570226 -6 8 C-5.34 8 -4.68 8 -4 8 C-3.71125 7.236875 -3.4225 6.47375 -3.125 5.6875 C-2 3 -2 3 0 0 Z " transform="translate(1070,544)" style="fill: #DCA13C;"></path><path d="M0 0 C0.33 0.66 0.66 1.32 1 2 C0.29959686 3.29574581 -0.40225861 4.59071801 -1.109375 5.8828125 C-2.743453 9.76733125 -3.35727381 13.95093092 -4.15625 18.07421875 C-5.03921626 21.13598602 -5.72149829 21.93492757 -8 24 C-9.2048149 26.26027345 -9.2048149 26.26027345 -10.1875 28.6875 C-10.53167969 29.49574219 -10.87585938 30.30398437 -11.23046875 31.13671875 C-11.61138672 32.05904297 -11.61138672 32.05904297 -12 33 C-12.66 33 -13.32 33 -14 33 C-14 33.99 -14 34.98 -14 36 C-14.66 36 -15.32 36 -16 36 C-14.39266717 29.33626599 -11.88227757 23.12903023 -9.125 16.875 C-8.79757812 16.1236377 -8.47015625 15.37227539 -8.1328125 14.59814453 C-5.82344915 9.44605413 -3.10825416 4.71117267 0 0 Z " transform="translate(916,120)" style="fill: #E19D32;"></path><path d="M0 0 C8.12717166 6.63442584 13.94439326 13.56220298 19.3125 22.5625 C19.96182495 23.64301636 19.96182495 23.64301636 20.62426758 24.74536133 C22.57268309 28.10047525 24.18010132 31.20057922 25.16796875 34.96484375 C25.44253906 35.96644531 25.71710937 36.96804688 26 38 C26.66 38.33 27.32 38.66 28 39 C26.25 38.9375 26.25 38.9375 24 38 C21.55272534 34.7838181 20 32.07605096 20 28 C19.01 28 18.02 28 17 28 C16.731875 27.0925 16.46375 26.185 16.1875 25.25 C15.08231782 22.22529089 13.9367553 20.50164226 12 18 C11.690625 17.13375 11.38125 16.2675 11.0625 15.375 C10.19894602 12.84788986 10.19894602 12.84788986 7.875 11.6875 C7.25625 11.460625 6.6375 11.23375 6 11 C6 9.68 6 8.36 6 7 C5.34 7 4.68 7 4 7 C4 6.34 4 5.68 4 5 C3.01 4.67 2.02 4.34 1 4 C0.3125 1.9375 0.3125 1.9375 0 0 Z " transform="translate(575,521)" style="fill: #D17B67;"></path><path d="M0 0 C0.33 0 0.66 0 1 0 C1.02578125 1.134375 1.0515625 2.26875 1.078125 3.4375 C1.28876987 14.84784932 1.28876987 14.84784932 6 25 C9.74512276 27.27138277 12.62967745 27.45210233 17 27 C20.3832553 25.1353694 20.3832553 25.1353694 23 23 C23.25 25.3125 23.25 25.3125 23 28 C21.5 29.8125 21.5 29.8125 19 31 C13.58100134 31.44418022 9.12544448 31.00997823 4 29 C0.52491483 25.87242334 0.49514896 22.50540944 0 18 C-0.10899547 14.85241521 -0.09548663 11.71145419 -0.0625 8.5625 C-0.05798828 7.73556641 -0.05347656 6.90863281 -0.04882812 6.05664062 C-0.03715811 4.03772854 -0.01922718 2.01885426 0 0 Z " transform="translate(805,360)" style="fill: #E29D2B;"></path><path d="M0 0 C0.66 0.33 1.32 0.66 2 1 C-1.92583924 11.00954045 -5.87421789 20.95960993 -10.48046875 30.6796875 C-13.53734497 37.35923709 -16.24416675 44.19195041 -19 51 C-19.33 51 -19.66 51 -20 51 C-20 49.02 -20 47.04 -20 45 C-19.34 45 -18.68 45 -18 45 C-18 43.35 -18 41.7 -18 40 C-17.34 40 -16.68 40 -16 40 C-15.896875 39.113125 -15.79375 38.22625 -15.6875 37.3125 C-15 34 -15 34 -13.5625 31.6875 C-12.07712686 29.13265821 -11.60807767 27.53229783 -11.0625 24.6875 C-10.26857326 20.69801815 -8.93461798 17.50164701 -7.01953125 13.9296875 C-5.48742717 11.02984299 -4.26088995 8.02613589 -3 5 C-2.34 5 -1.68 5 -1 5 C-0.67 3.35 -0.34 1.7 0 0 Z " transform="translate(962,339)" style="fill: #FDEFBC;"></path><path d="M0 0 C2.13903875 1.54243611 3.36708533 2.87721093 5 5 C5 5.66 5 6.32 5 7 C5.66 7 6.32 7 7 7 C6.67 7.66 6.34 8.32 6 9 C5.443125 8.60167969 4.88625 8.20335937 4.3125 7.79296875 C-5.6959931 0.84450479 -13.57521409 -1.43461446 -26 0 C-29.91597271 1.29038918 -33.44014384 2.92773446 -37 5 C-36.67 4.01 -36.34 3.02 -36 2 C-33.9375 1.3125 -33.9375 1.3125 -32 1 C-32 0.34 -32 -0.32 -32 -1 C-21.82534773 -4.25588873 -9.80720055 -4.70893939 0 0 Z " transform="translate(1072,191)" style="fill: #FBEAB7;"></path><path d="M0 0 C2.33390749 1.98382136 3.34972656 3.6632745 4.8125 6.4375 C6.92997389 10.19482209 9.02360097 12.12434008 13 14 C19.45034787 15.16082327 24.64272122 13.64527882 30 10 C31.84088417 8.42273759 33.38357272 6.81848069 35 5 C33.60090738 9.45165834 31.39864635 11.85625212 28 15 C27.34 15.66 26.68 16.32 26 17 C23.48935124 17.2528288 21.13638685 17.37024359 18.625 17.375 C17.95210937 17.39949219 17.27921875 17.42398437 16.5859375 17.44921875 C13.1283606 17.46963751 11.37555738 17.31465618 8.6875 15.0625 C8.130625 14.381875 7.57375 13.70125 7 13 C6.13375 12.54625 5.2675 12.0925 4.375 11.625 C1.22374972 9.46888139 0.82312246 7.66663643 0 4 C0 2.68 0 1.36 0 0 Z " transform="translate(661,458)" style="fill: #DF9F33;"></path><path d="M0 0 C0.33 0 0.66 0 1 0 C1 5.61 1 11.22 1 17 C1.66 17.33 2.32 17.66 3 18 C3 18.99 3 19.98 3 21 C6.3 21 9.6 21 13 21 C13 20.34 13 19.68 13 19 C13.763125 18.5875 14.52625 18.175 15.3125 17.75 C18.59301885 15.61384819 19.49933644 13.55420317 21 10 C21.66 10.33 22.32 10.66 23 11 C17.86943493 21.21746575 17.86943493 21.21746575 13 24 C9.5625 25.0625 9.5625 25.0625 6 25 C2.97085701 23.27874202 0.5791723 21.15834461 -1 18 C-1.09756755 15.71003214 -1.12976516 13.41704047 -1.125 11.125 C-1.12757813 9.89007813 -1.13015625 8.65515625 -1.1328125 7.3828125 C-1.02717861 4.69225511 -0.80529454 2.54370816 0 0 Z " transform="translate(914,390)" style="fill: #FEEDB7;"></path><path d="M0 0 C0 3 0 3 -2.3125 5.625 C-5 8 -5 8 -8 9 C-8 9.66 -8 10.32 -8 11 C-10.38781927 13.52426609 -12.88468883 15.89355892 -15.4375 18.25 C-18.23717621 21.25453057 -20.30507885 24.42473837 -22.52734375 27.86328125 C-24.39847712 30.57816177 -26.61225343 32.73470198 -29 35 C-30.71213256 36.96613024 -32.35383768 38.97757201 -34 41 C-34 36.9108743 -31.88898187 34.92606488 -29.4375 31.875 C-28.51301637 30.70312852 -27.58853722 29.53125351 -26.6640625 28.359375 C-26.20805664 27.78638672 -25.75205078 27.21339844 -25.28222656 26.62304688 C-23.59138474 24.48277337 -21.95619762 22.30158589 -20.3125 20.125 C-17.16867253 16.08610636 -13.68864525 12.53790734 -10 9 C-8.700625 7.6696875 -8.700625 7.6696875 -7.375 6.3125 C-5.02997514 4.02918632 -2.59006309 1.99804867 0 0 Z " transform="translate(1117,360)" style="fill: #D99F3E;"></path><path d="M0 0 C1.49003149 3.87408187 0.31985344 6.18709006 -1 10 C-1.44239354 12.6639785 -1.72188983 15.31160165 -2 18 C-2.66 18 -3.32 18 -4 18 C-4.24650779 38.32646866 -4.24650779 38.32646866 2 57 C2.125 60.1875 2.125 60.1875 2 63 C-0.57821139 60.42178861 -1.02434808 58.17300626 -2.0625 54.6875 C-2.40410156 53.55699219 -2.74570312 52.42648437 -3.09765625 51.26171875 C-7.22270952 36.35081189 -7.34071808 17.2602495 -1 3 C-0.67 2.01 -0.34 1.02 0 0 Z " transform="translate(490,538)" style="fill: #CB7863;"></path><path d="M0 0 C5.39850263 3.10109474 10.01029023 6.67061395 12.59765625 12.4921875 C12.26765625 13.1521875 11.93765625 13.8121875 11.59765625 14.4921875 C8.59765625 10.7421875 8.59765625 10.7421875 8.59765625 8.4921875 C7.99953125 8.2240625 7.40140625 7.9559375 6.78515625 7.6796875 C4.59765625 6.4921875 4.59765625 6.4921875 3.3046875 5.0859375 C-2.65992814 -0.48285696 -11.25323738 -2.07541134 -19.125 -1.87890625 C-21.67547017 -1.6244837 -21.67547017 -1.6244837 -24.40234375 0.4921875 C-26.16578125 0.9871875 -26.16578125 0.9871875 -27.96484375 1.4921875 C-31.433077 2.20195756 -31.433077 2.20195756 -33.40234375 4.4921875 C-34.39234375 4.1621875 -35.38234375 3.8321875 -36.40234375 3.4921875 C-34.96777047 2.5087379 -33.52956969 1.53057829 -32.08984375 0.5546875 C-31.28933594 0.00941406 -30.48882813 -0.53585938 -29.6640625 -1.09765625 C-21.02620162 -6.48326554 -8.64529541 -4.11902365 0 0 Z " transform="translate(1070.40234375,193.5078125)" style="fill: #D89D3B;"></path><path d="M0 0 C0.79470703 -0.01611328 1.58941406 -0.03222656 2.40820312 -0.04882812 C8.27580998 -0.05360242 13.11781103 1.16051661 18.5625 3.3125 C18.5625 3.9725 18.5625 4.6325 18.5625 5.3125 C17.29019531 4.99023438 16.01789062 4.66796875 14.70703125 4.3359375 C9.52732624 3.19164294 4.5425662 2.92827866 -0.75 2.9375 C-2.12877319 2.93882935 -2.12877319 2.93882935 -3.53540039 2.94018555 C-13.19923728 3.10802262 -20.96961424 5.85571802 -29.4375 10.3125 C-30.0975 10.3125 -30.7575 10.3125 -31.4375 10.3125 C-31.4375 9.6525 -31.4375 8.9925 -31.4375 8.3125 C-30.4475 8.3125 -29.4575 8.3125 -28.4375 8.3125 C-28.4375 7.6525 -28.4375 6.9925 -28.4375 6.3125 C-26.77285403 5.68213774 -25.10565224 5.05852407 -23.4375 4.4375 C-22.509375 4.08945312 -21.58125 3.74140625 -20.625 3.3828125 C-13.55924614 1.01024319 -7.41765678 -0.02993405 0 0 Z " transform="translate(667.4375,506.6875)" style="fill: #FBDACD;"></path><path d="M0 0 C0.33 0 0.66 0 1 0 C0.98428955 0.64549805 0.9685791 1.29099609 0.95239258 1.95605469 C0.88994198 4.88728029 0.8509777 7.81836579 0.8125 10.75 C0.78736328 11.76578125 0.76222656 12.7815625 0.73632812 13.828125 C0.72666016 14.8078125 0.71699219 15.7875 0.70703125 16.796875 C0.6913208 17.69760742 0.67561035 18.59833984 0.65942383 19.52636719 C1.06601845 22.47949743 2.12768793 23.73223883 4 26 C4.6875 28.75 4.6875 28.75 5 31 C8.73486879 31.5745952 12.21293268 32 16 32 C16 31.34 16 30.68 16 30 C16.66 30 17.32 30 18 30 C18 28.68 18 27.36 18 26 C19.32 25.67 20.64 25.34 22 25 C20.65216226 29.41110531 18.97248797 31.61650722 15 34 C11.28620016 34.46422498 8.81654948 34.30383237 5.3125 33 C1.39222209 29.60948937 -0.69396722 26.22962248 -1.18359375 21.0625 C-1.50475118 13.97134396 -1.35452805 6.98187629 0 0 Z " transform="translate(807,354)" style="fill: #FDE8AD;"></path><path d="M0 0 C0.66 0.33 1.32 0.66 2 1 C-4.43865147 13.08863279 -11.1541597 24.76734361 -19 36 C-19.33 34.68 -19.66 33.36 -20 32 C-19.34 32 -18.68 32 -18 32 C-18 31.01 -18 30.02 -18 29 C-17.34 29 -16.68 29 -16 29 C-16 28.01 -16 27.02 -16 26 C-15.34 26 -14.68 26 -14 26 C-13.81824219 25.40832031 -13.63648438 24.81664062 -13.44921875 24.20703125 C-10.21070812 14.02648244 -10.21070812 14.02648244 -6.5 10.625 C-4.17381328 8.10496438 -3.25853283 5.17629714 -2 2 C-1.34 2 -0.68 2 0 2 C0 1.34 0 0.68 0 0 Z " transform="translate(998,704)" style="fill: #DEA037;"></path><path d="M0 0 C0.66 0.99 1.32 1.98 2 3 C0.625 4.5 0.625 4.5 -1 6 C-1.66 6 -2.32 6 -3 6 C-3 6.66 -3 7.32 -3 8 C-3.7425 8.721875 -4.485 9.44375 -5.25 10.1875 C-9.20730992 14.23474878 -11.48721032 18.6073826 -13.5 23.8125 C-15.12904022 27.27421047 -15.69261826 27.56680125 -19 29 C-19.80528889 31.05000871 -19.80528889 31.05000871 -20 33 C-20.66 32.67 -21.32 32.34 -22 32 C-15.98855568 20.18375475 -8.98884651 9.80346073 0 0 Z " transform="translate(625,525)" style="fill: #D37B66;"></path><path d="M0 0 C4.37504631 -0.26250278 4.37504631 -0.26250278 7 1 C9.5019941 4.43388807 11.23884892 8.14509656 13 12 C14.60456062 15.50847957 15.48367824 16.40167193 19 18 C20.75 19.625 20.75 19.625 22 21 C21.67 21.99 21.34 22.98 21 24 C15.98721331 19.08951508 11.13386371 14.1245911 6.57421875 8.7890625 C5.13258819 7.15068335 3.63745541 5.63378081 2.0625 4.125 C0 2 0 2 0 0 Z " transform="translate(541,671)" style="fill: #D47C67;"></path><path d="M0 0 C9.80843419 0.61970499 9.80843419 0.61970499 14 4 C14 4.66 14 5.32 14 6 C14.66 6 15.32 6 16 6 C19.49602186 11.50623443 21.7013076 15.40770855 21 22 C19.43920907 19.65881361 18.41672301 17.7207175 17.3125 15.1875 C13.61833488 7.75827494 7.32062019 4.33923026 0 1 C0 0.67 0 0.34 0 0 Z " transform="translate(1142,353)" style="fill: #FDEEC0;"></path><path d="M0 0 C0.66 0.33 1.32 0.66 2 1 C-4.93875119 10.07271916 -12.14592598 18.70536863 -20 27 C-20.33 26.01 -20.66 25.02 -21 24 C-18.27149799 20.33601159 -15.22697672 17.22697672 -12 14 C-11.67 13.34 -11.34 12.68 -11 12 C-10.34 12 -9.68 12 -9 12 C-8.9071875 11.40445313 -8.814375 10.80890625 -8.71875 10.1953125 C-7.83342903 7.49123431 -6.72039762 6.61309813 -4.5 4.875 C-1.8119616 2.80112319 -1.8119616 2.80112319 0 0 Z " transform="translate(976,740)" style="fill: #DDA139;"></path><path d="M0 0 C2.47084056 3.70626083 3.6991044 7.4291828 5.125 11.625 C5.40214844 12.39457031 5.67929688 13.16414063 5.96484375 13.95703125 C7.85323949 19.51058918 8.26908867 24.13854677 8 30 C7.67 30 7.34 30 7 30 C6.87625 28.865625 6.7525 27.73125 6.625 26.5625 C6.41875 25.386875 6.2125 24.21125 6 23 C5.34 22.67 4.68 22.34 4 22 C3.40644386 19.35139573 3.25790731 16.70802678 3 14 C2.34 14 1.68 14 1 14 C0.67 9.38 0.34 4.76 0 0 Z " transform="translate(196,434)" style="fill: #EDEFCF;"></path><path d="M0 0 C0.33 0 0.66 0 1 0 C0.86162204 4.29194146 0.71304061 8.58346929 0.5625 12.875 C0.50352539 14.70998047 0.50352539 14.70998047 0.44335938 16.58203125 C0.40146484 17.74863281 0.35957031 18.91523438 0.31640625 20.1171875 C0.27974854 21.19597168 0.24309082 22.27475586 0.20532227 23.38623047 C0 26 0 26 -1 28 C-1.22622081 29.70363822 -1.40888473 31.41328701 -1.5625 33.125 C-1.68818359 34.49011719 -1.68818359 34.49011719 -1.81640625 35.8828125 C-1.87699219 36.58148438 -1.93757812 37.28015625 -2 38 C-2.66 38 -3.32 38 -4 38 C-3.4685066 25.20750379 -1.86088668 12.66033155 0 0 Z " transform="translate(821,234)" style="fill: #FBE6B0;"></path></svg>